<?xml version="1.0" encoding="UTF-8"?>
<svg xmlns="http://www.w3.org/2000/svg" xmlns:xlink="http://www.w3.org/1999/xlink" width="36pt" height="36.000001pt" viewBox="0 0 36 36.000001" version="1.2">
<defs>
<clipPath id="clip1">
  <path d="M 0.488281 0 L 35.511719 0 L 35.511719 35.027344 L 0.488281 35.027344 Z M 0.488281 0 "/>
</clipPath>
<clipPath id="clip2">
  <path d="M 15 10.859375 L 16 10.859375 L 16 13 L 15 13 Z M 15 10.859375 "/>
</clipPath>
<clipPath id="clip3">
  <path d="M 20 21 L 23 21 L 23 23.992188 L 20 23.992188 Z M 20 21 "/>
</clipPath>
<clipPath id="clip4">
  <path d="M 17 13 L 24.859375 13 L 24.859375 23 L 17 23 Z M 17 13 "/>
</clipPath>
<clipPath id="clip5">
  <path d="M 13 21 L 16 21 L 16 23.992188 L 13 23.992188 Z M 13 21 "/>
</clipPath>
</defs>
<g id="surface1">
<g clip-path="url(#clip1)" clip-rule="nonzero">
<path style=" stroke:none;fill-rule:nonzero;fill:rgb(100%,54.899597%,0%);fill-opacity:1;" d="M 18 0 C 17.425781 0 16.855469 0.0273438 16.285156 0.0859375 C 15.710938 0.140625 15.144531 0.226562 14.582031 0.335938 C 14.019531 0.449219 13.464844 0.585938 12.917969 0.753906 C 12.367188 0.921875 11.828125 1.113281 11.296875 1.332031 C 10.769531 1.550781 10.25 1.796875 9.746094 2.066406 C 9.238281 2.339844 8.746094 2.632812 8.269531 2.953125 C 7.792969 3.269531 7.332031 3.613281 6.890625 3.976562 C 6.445312 4.339844 6.023438 4.722656 5.617188 5.128906 C 5.210938 5.535156 4.824219 5.960938 4.460938 6.402344 C 4.097656 6.847656 3.757812 7.304688 3.4375 7.785156 C 3.121094 8.261719 2.824219 8.75 2.554688 9.257812 C 2.285156 9.761719 2.039062 10.28125 1.820312 10.8125 C 1.601562 11.339844 1.40625 11.878906 1.242188 12.429688 C 1.074219 12.976562 0.933594 13.535156 0.824219 14.097656 C 0.710938 14.660156 0.628906 15.226562 0.570312 15.796875 C 0.515625 16.367188 0.488281 16.941406 0.488281 17.511719 C 0.488281 18.085938 0.515625 18.660156 0.570312 19.230469 C 0.628906 19.800781 0.710938 20.367188 0.824219 20.929688 C 0.933594 21.492188 1.074219 22.046875 1.242188 22.597656 C 1.40625 23.144531 1.601562 23.6875 1.820312 24.214844 C 2.039062 24.746094 2.285156 25.261719 2.554688 25.769531 C 2.824219 26.273438 3.121094 26.765625 3.4375 27.242188 C 3.757812 27.71875 4.097656 28.179688 4.460938 28.625 C 4.824219 29.066406 5.210938 29.492188 5.617188 29.898438 C 6.023438 30.304688 6.445312 30.6875 6.890625 31.050781 C 7.332031 31.414062 7.792969 31.757812 8.269531 32.074219 C 8.746094 32.394531 9.238281 32.6875 9.746094 32.960938 C 10.25 33.230469 10.769531 33.472656 11.296875 33.695312 C 11.828125 33.914062 12.367188 34.105469 12.917969 34.273438 C 13.464844 34.4375 14.019531 34.578125 14.582031 34.691406 C 15.144531 34.800781 15.710938 34.886719 16.285156 34.941406 C 16.855469 35 17.425781 35.027344 18 35.027344 C 18.574219 35.027344 19.144531 35 19.714844 34.941406 C 20.289062 34.886719 20.855469 34.800781 21.417969 34.691406 C 21.980469 34.578125 22.535156 34.4375 23.082031 34.273438 C 23.632812 34.105469 24.171875 33.914062 24.703125 33.695312 C 25.230469 33.472656 25.75 33.230469 26.253906 32.960938 C 26.761719 32.6875 27.253906 32.394531 27.730469 32.074219 C 28.207031 31.757812 28.667969 31.414062 29.109375 31.050781 C 29.554688 30.6875 29.976562 30.304688 30.382812 29.898438 C 30.789062 29.492188 31.175781 29.066406 31.539062 28.625 C 31.902344 28.179688 32.242188 27.71875 32.5625 27.242188 C 32.878906 26.765625 33.175781 26.273438 33.445312 25.769531 C 33.714844 25.261719 33.960938 24.746094 34.179688 24.214844 C 34.398438 23.6875 34.59375 23.144531 34.757812 22.597656 C 34.925781 22.046875 35.066406 21.492188 35.175781 20.929688 C 35.289062 20.367188 35.371094 19.800781 35.429688 19.230469 C 35.484375 18.660156 35.511719 18.085938 35.511719 17.511719 C 35.511719 16.941406 35.484375 16.367188 35.429688 15.796875 C 35.371094 15.226562 35.289062 14.660156 35.175781 14.097656 C 35.066406 13.535156 34.925781 12.976562 34.757812 12.429688 C 34.59375 11.878906 34.398438 11.339844 34.179688 10.8125 C 33.960938 10.28125 33.714844 9.761719 33.445312 9.257812 C 33.175781 8.75 32.878906 8.261719 32.5625 7.785156 C 32.242188 7.304688 31.902344 6.847656 31.539062 6.402344 C 31.175781 5.960938 30.789062 5.535156 30.382812 5.128906 C 29.976562 4.722656 29.554688 4.339844 29.109375 3.976562 C 28.667969 3.613281 28.207031 3.269531 27.730469 2.953125 C 27.253906 2.632812 26.761719 2.339844 26.253906 2.066406 C 25.75 1.796875 25.230469 1.550781 24.703125 1.332031 C 24.171875 1.113281 23.632812 0.921875 23.082031 0.753906 C 22.535156 0.585938 21.980469 0.449219 21.417969 0.335938 C 20.855469 0.226562 20.289062 0.140625 19.714844 0.0859375 C 19.144531 0.0273438 18.574219 0 18 0 Z M 18 0 "/>
</g>
<g clip-path="url(#clip2)" clip-rule="nonzero">
<path style=" stroke:none;fill-rule:nonzero;fill:rgb(100%,100%,100%);fill-opacity:1;" d="M 15.652344 12.367188 C 15.742188 12.367188 15.816406 12.332031 15.878906 12.269531 C 15.941406 12.210938 15.972656 12.132812 15.976562 12.046875 L 15.976562 11.214844 C 15.972656 11.128906 15.941406 11.054688 15.878906 10.992188 C 15.816406 10.929688 15.742188 10.898438 15.652344 10.894531 C 15.5625 10.890625 15.484375 10.921875 15.421875 10.984375 C 15.359375 11.046875 15.328125 11.125 15.332031 11.214844 L 15.332031 12.046875 C 15.328125 12.136719 15.359375 12.214844 15.421875 12.277344 C 15.484375 12.339844 15.5625 12.371094 15.652344 12.367188 Z M 15.652344 12.367188 "/>
</g>
<path style=" stroke:none;fill-rule:nonzero;fill:rgb(100%,100%,100%);fill-opacity:1;" d="M 13.964844 12.855469 C 14.019531 12.929688 14.09375 12.964844 14.183594 12.957031 C 14.273438 12.957031 14.34375 12.925781 14.402344 12.855469 C 14.472656 12.796875 14.503906 12.722656 14.503906 12.628906 C 14.503906 12.539062 14.472656 12.464844 14.402344 12.402344 L 13.808594 11.824219 C 13.75 11.757812 13.679688 11.722656 13.589844 11.722656 C 13.503906 11.722656 13.429688 11.757812 13.371094 11.824219 C 13.300781 11.882812 13.265625 11.953125 13.265625 12.042969 C 13.265625 12.132812 13.300781 12.207031 13.371094 12.265625 Z M 13.964844 12.855469 "/>
<path style=" stroke:none;fill-rule:nonzero;fill:rgb(100%,100%,100%);fill-opacity:1;" d="M 12.773438 14.464844 L 13.605469 14.464844 C 13.691406 14.460938 13.769531 14.429688 13.832031 14.367188 C 13.890625 14.304688 13.925781 14.230469 13.925781 14.144531 C 13.921875 14.058594 13.890625 13.984375 13.828125 13.925781 C 13.765625 13.867188 13.691406 13.835938 13.605469 13.835938 L 12.773438 13.835938 C 12.683594 13.832031 12.609375 13.859375 12.542969 13.921875 C 12.480469 13.980469 12.449219 14.054688 12.449219 14.144531 C 12.445312 14.234375 12.476562 14.308594 12.539062 14.375 C 12.605469 14.4375 12.679688 14.46875 12.773438 14.464844 Z M 12.773438 14.464844 "/>
<path style=" stroke:none;fill-rule:nonzero;fill:rgb(100%,100%,100%);fill-opacity:1;" d="M 15.652344 13.644531 C 15.453125 13.644531 15.277344 13.710938 15.136719 13.851562 C 14.992188 13.992188 14.917969 14.164062 14.917969 14.363281 L 14.917969 14.65625 L 16.359375 14.65625 L 16.359375 14.363281 C 16.359375 14.167969 16.289062 14 16.152344 13.859375 C 16.015625 13.722656 15.847656 13.648438 15.652344 13.644531 Z M 15.652344 13.644531 "/>
<g clip-path="url(#clip3)" clip-rule="nonzero">
<path style=" stroke:none;fill-rule:nonzero;fill:rgb(100%,100%,100%);fill-opacity:1;" d="M 22.71875 22.65625 C 22.703125 22.457031 22.632812 22.277344 22.507812 22.117188 L 22.5 22.109375 C 22.460938 22.058594 22.414062 22.023438 22.375 21.980469 C 22.378906 21.96875 22.375 21.960938 22.363281 21.953125 C 22.320312 21.921875 22.277344 21.890625 22.230469 21.867188 C 22.207031 21.855469 22.183594 21.84375 22.164062 21.832031 C 22.128906 21.8125 22.097656 21.792969 22.066406 21.769531 C 22.03125 21.757812 21.992188 21.75 21.953125 21.75 C 21.921875 21.738281 21.886719 21.726562 21.851562 21.71875 C 21.785156 21.703125 21.71875 21.695312 21.648438 21.695312 C 21.582031 21.695312 21.515625 21.703125 21.449219 21.71875 C 21.414062 21.726562 21.382812 21.738281 21.351562 21.746094 C 21.3125 21.75 21.273438 21.757812 21.234375 21.769531 C 21.207031 21.792969 21.179688 21.8125 21.148438 21.828125 C 21.121094 21.839844 21.09375 21.851562 21.070312 21.871094 C 21.027344 21.890625 20.984375 21.917969 20.945312 21.949219 C 20.933594 21.957031 20.929688 21.96875 20.929688 21.980469 C 20.886719 22.019531 20.84375 22.058594 20.808594 22.101562 L 20.792969 22.121094 C 20.667969 22.277344 20.597656 22.457031 20.578125 22.65625 L 20.578125 22.667969 C 20.574219 22.710938 20.566406 22.753906 20.566406 22.78125 C 20.554688 22.933594 20.578125 23.085938 20.632812 23.230469 C 20.6875 23.375 20.769531 23.503906 20.878906 23.617188 C 20.988281 23.726562 21.113281 23.808594 21.257812 23.867188 C 21.40625 23.921875 21.554688 23.945312 21.710938 23.9375 C 21.867188 23.929688 22.011719 23.890625 22.152344 23.820312 C 22.289062 23.746094 22.410156 23.652344 22.503906 23.53125 C 22.601562 23.410156 22.671875 23.273438 22.710938 23.121094 C 22.746094 22.972656 22.753906 22.820312 22.726562 22.667969 Z M 22.71875 22.65625 "/>
</g>
<path style=" stroke:none;fill-rule:nonzero;fill:rgb(100%,100%,100%);fill-opacity:1;" d="M 14.285156 15.738281 L 13.203125 17.824219 L 16.359375 17.824219 L 16.359375 15.285156 L 14.921875 15.285156 C 14.601562 15.285156 14.390625 15.4375 14.285156 15.738281 Z M 14.285156 15.738281 "/>
<path style=" stroke:none;fill-rule:nonzero;fill:rgb(100%,100%,100%);fill-opacity:1;" d="M 12.535156 18.449219 L 11.976562 18.449219 C 11.671875 18.441406 11.46875 18.582031 11.371094 18.871094 L 11.09375 21.355469 C 11.027344 21.585938 11.042969 21.8125 11.148438 22.03125 C 11.285156 22.207031 11.464844 22.300781 11.6875 22.3125 L 12.441406 22.3125 C 12.445312 22.300781 12.449219 22.292969 12.453125 22.285156 C 12.480469 22.199219 12.511719 22.117188 12.550781 22.039062 C 12.550781 22.039062 12.550781 22.039062 12.550781 22.027344 C 12.621094 21.871094 12.71875 21.734375 12.839844 21.613281 L 12.839844 21.59375 C 12.875 21.554688 12.917969 21.515625 12.960938 21.480469 C 13.007812 21.453125 13.050781 21.421875 13.09375 21.386719 C 13.121094 21.355469 13.152344 21.332031 13.191406 21.316406 C 13.25 21.28125 13.304688 21.25 13.363281 21.222656 C 13.394531 21.203125 13.429688 21.1875 13.460938 21.171875 C 13.535156 21.15625 13.605469 21.132812 13.679688 21.117188 C 13.707031 21.101562 13.734375 21.09375 13.765625 21.085938 C 13.871094 21.0625 13.976562 21.050781 14.085938 21.050781 C 14.195312 21.050781 14.304688 21.0625 14.410156 21.085938 C 14.449219 21.09375 14.488281 21.105469 14.53125 21.117188 C 14.585938 21.140625 14.648438 21.15625 14.707031 21.171875 C 14.753906 21.183594 14.800781 21.203125 14.84375 21.226562 C 14.886719 21.257812 14.929688 21.289062 14.976562 21.3125 C 15.027344 21.328125 15.074219 21.355469 15.117188 21.386719 C 15.152344 21.417969 15.164062 21.449219 15.203125 21.46875 C 15.394531 21.625 15.546875 21.8125 15.65625 22.03125 L 15.664062 22.03125 C 15.707031 22.109375 15.730469 22.191406 15.734375 22.277344 C 15.734375 22.289062 15.742188 22.296875 15.742188 22.304688 L 16.363281 22.304688 L 16.363281 18.449219 Z M 12.601562 20.46875 C 12.605469 20.558594 12.574219 20.632812 12.511719 20.699219 C 12.449219 20.761719 12.371094 20.792969 12.28125 20.789062 L 11.976562 20.789062 C 11.890625 20.785156 11.816406 20.753906 11.757812 20.691406 C 11.699219 20.628906 11.671875 20.554688 11.679688 20.46875 L 11.679688 19.964844 C 11.671875 19.878906 11.699219 19.804688 11.757812 19.742188 C 11.816406 19.679688 11.890625 19.644531 11.976562 19.644531 L 12.28125 19.644531 C 12.371094 19.640625 12.449219 19.671875 12.511719 19.734375 C 12.574219 19.796875 12.605469 19.875 12.601562 19.964844 Z M 12.601562 20.46875 "/>
<g clip-path="url(#clip4)" clip-rule="nonzero">
<path style=" stroke:none;fill-rule:nonzero;fill:rgb(100%,100%,100%);fill-opacity:1;" d="M 17.003906 13.144531 L 17.003906 22.3125 L 20 22.3125 C 20 22.304688 20.003906 22.292969 20.007812 22.285156 C 20.035156 22.207031 20.0625 22.125 20.078125 22.042969 C 20.082031 22.042969 20.089844 22.042969 20.09375 22.03125 C 20.175781 21.886719 20.269531 21.746094 20.371094 21.613281 C 20.378906 21.609375 20.386719 21.605469 20.394531 21.597656 C 20.4375 21.558594 20.480469 21.519531 20.523438 21.484375 C 20.566406 21.457031 20.605469 21.425781 20.640625 21.390625 C 20.671875 21.355469 20.710938 21.332031 20.753906 21.320312 C 20.808594 21.285156 20.867188 21.253906 20.925781 21.226562 C 20.953125 21.199219 20.988281 21.179688 21.027344 21.171875 C 21.089844 21.160156 21.15625 21.140625 21.21875 21.117188 C 21.253906 21.105469 21.289062 21.097656 21.324219 21.089844 C 21.539062 21.039062 21.757812 21.039062 21.972656 21.089844 C 22.011719 21.097656 22.050781 21.109375 22.085938 21.117188 C 22.144531 21.140625 22.207031 21.160156 22.269531 21.171875 C 22.3125 21.179688 22.347656 21.199219 22.375 21.226562 C 22.433594 21.253906 22.484375 21.285156 22.539062 21.316406 C 22.585938 21.328125 22.628906 21.351562 22.664062 21.390625 C 22.691406 21.421875 22.722656 21.449219 22.761719 21.46875 C 22.949219 21.628906 23.101562 21.816406 23.214844 22.035156 L 23.21875 22.035156 C 23.238281 22.117188 23.261719 22.191406 23.289062 22.28125 C 23.289062 22.289062 23.292969 22.296875 23.296875 22.308594 L 24.230469 22.308594 C 24.417969 22.308594 24.578125 22.242188 24.710938 22.109375 C 24.84375 21.976562 24.910156 21.816406 24.910156 21.628906 L 24.910156 13.144531 Z M 23.527344 18.074219 C 23.527344 18.160156 23.496094 18.234375 23.4375 18.296875 C 23.375 18.359375 23.300781 18.390625 23.214844 18.394531 L 22.125 18.394531 L 22.125 19.453125 C 22.128906 19.542969 22.097656 19.617188 22.035156 19.683594 C 21.96875 19.746094 21.894531 19.777344 21.804688 19.773438 L 20.078125 19.773438 C 19.992188 19.769531 19.917969 19.738281 19.859375 19.675781 C 19.800781 19.613281 19.769531 19.539062 19.773438 19.453125 L 19.773438 18.394531 L 18.695312 18.394531 C 18.605469 18.390625 18.53125 18.359375 18.46875 18.296875 C 18.410156 18.234375 18.375 18.160156 18.375 18.074219 L 18.375 16.355469 C 18.375 16.265625 18.410156 16.191406 18.46875 16.128906 C 18.53125 16.070312 18.609375 16.035156 18.695312 16.035156 L 19.773438 16.035156 L 19.773438 14.976562 C 19.769531 14.890625 19.800781 14.816406 19.859375 14.753906 C 19.917969 14.691406 19.992188 14.660156 20.078125 14.65625 L 21.804688 14.65625 C 21.894531 14.652344 21.96875 14.683594 22.035156 14.746094 C 22.097656 14.808594 22.128906 14.886719 22.125 14.976562 L 22.125 16.035156 L 23.214844 16.035156 C 23.300781 16.035156 23.375 16.070312 23.4375 16.132812 C 23.496094 16.195312 23.527344 16.269531 23.527344 16.355469 Z M 23.527344 18.074219 "/>
</g>
<g clip-path="url(#clip5)" clip-rule="nonzero">
<path style=" stroke:none;fill-rule:nonzero;fill:rgb(100%,100%,100%);fill-opacity:1;" d="M 15.164062 22.65625 C 15.152344 22.453125 15.082031 22.273438 14.945312 22.117188 L 14.941406 22.109375 C 14.902344 22.066406 14.871094 22.023438 14.835938 21.980469 C 14.828125 21.96875 14.816406 21.960938 14.804688 21.953125 C 14.761719 21.921875 14.714844 21.890625 14.667969 21.867188 C 14.648438 21.855469 14.625 21.84375 14.605469 21.832031 C 14.574219 21.804688 14.542969 21.785156 14.507812 21.769531 C 14.472656 21.757812 14.433594 21.75 14.394531 21.75 C 14.359375 21.738281 14.328125 21.726562 14.292969 21.71875 C 14.226562 21.703125 14.160156 21.695312 14.089844 21.695312 C 14.023438 21.695312 13.957031 21.703125 13.890625 21.71875 C 13.855469 21.726562 13.828125 21.738281 13.792969 21.746094 C 13.761719 21.753906 13.714844 21.753906 13.707031 21.769531 C 13.664062 21.785156 13.625 21.804688 13.589844 21.828125 C 13.5625 21.839844 13.535156 21.851562 13.511719 21.871094 C 13.46875 21.894531 13.425781 21.914062 13.417969 21.949219 C 13.402344 21.957031 13.386719 21.96875 13.375 21.980469 C 13.328125 22.019531 13.285156 22.058594 13.246094 22.101562 L 13.230469 22.121094 C 13.121094 22.285156 13.050781 22.460938 13.019531 22.65625 L 13.019531 22.667969 C 13.015625 22.710938 13.007812 22.753906 13.007812 22.78125 C 13.007812 22.925781 13.035156 23.0625 13.089844 23.195312 C 13.144531 23.328125 13.222656 23.445312 13.324219 23.546875 C 13.425781 23.648438 13.546875 23.726562 13.679688 23.78125 C 13.8125 23.839844 13.949219 23.867188 14.09375 23.867188 C 14.238281 23.867188 14.378906 23.839844 14.511719 23.78125 C 14.644531 23.726562 14.761719 23.648438 14.863281 23.546875 C 14.964844 23.445312 15.046875 23.328125 15.101562 23.195312 C 15.15625 23.0625 15.183594 22.925781 15.183594 22.78125 C 15.183594 22.753906 15.175781 22.710938 15.167969 22.667969 Z M 15.164062 22.65625 "/>
</g>
</g>
</svg>
