<svg xmlns="http://www.w3.org/2000/svg" viewBox="0 0 32 32"><g id="app"><path d="M4.23,12H9.77A2.23,2.23,0,0,0,12,9.77V4.23A2.23,2.23,0,0,0,9.77,2H4.23A2.23,2.23,0,0,0,2,4.23V9.77A2.23,2.23,0,0,0,4.23,12ZM4,4.23A.23.23,0,0,1,4.23,4H9.77a.23.23,0,0,1,.23.23V9.77a.23.23,0,0,1-.23.23H4.23A.23.23,0,0,1,4,9.77Z"/><path d="M27.77,2H22a1,1,0,0,0,0,2h5.77a.23.23,0,0,1,.23.23V9.77a.23.23,0,0,1-.23.23H17.23A.23.23,0,0,1,17,9.77V4.23A.23.23,0,0,1,17.23,4a1,1,0,0,0,0-2A2.23,2.23,0,0,0,15,4.23V9.77A2.23,2.23,0,0,0,17.23,12H27.77A2.23,2.23,0,0,0,30,9.77V4.23A2.23,2.23,0,0,0,27.77,2Z"/><path d="M27.77,14H22.23A2.23,2.23,0,0,0,20,16.23v5.54A2.23,2.23,0,0,0,22.23,24h5.54A2.23,2.23,0,0,0,30,21.77V16.23A2.23,2.23,0,0,0,27.77,14ZM28,21.77a.23.23,0,0,1-.23.23H22.23a.23.23,0,0,1-.23-.23V16.23a.23.23,0,0,1,.23-.23h5.54a.23.23,0,0,1,.23.23Z"/><path d="M14.77,14H4.23A2.23,2.23,0,0,0,2,16.23V27.77A2.23,2.23,0,0,0,4.23,30H14.77A2.23,2.23,0,0,0,17,27.77a1,1,0,1,0-2,0,.23.23,0,0,1-.23.23H4.23A.23.23,0,0,1,4,27.77V16.23A.23.23,0,0,1,4.23,16H14.77a.23.23,0,0,1,.23.23V23a1,1,0,0,0,2,0V16.23A2.23,2.23,0,0,0,14.77,14Z"/><path d="M11.2,19.4,8.89,22.48,7.71,21.29a1,1,0,0,0-1.42,1.42l2,2A1,1,0,0,0,9,25h.07a1,1,0,0,0,.73-.4l3-4a1,1,0,0,0-1.6-1.2Z"/></g></svg>