<svg xmlns="http://www.w3.org/2000/svg" viewBox="0 0 32 32"><g id="binary"><path d="M24,13a1,1,0,0,0,1-1V5a3,3,0,0,0-3-3H9A3,3,0,0,0,6,5V27a3,3,0,0,0,3,3H22a3,3,0,0,0,3-3V18a1,1,0,0,0-2,0v9a1,1,0,0,1-1,1H9a1,1,0,0,1-1-1V5A1,1,0,0,1,9,4h1.25l.39,1.18A2.67,2.67,0,0,0,13.2,7h4.6a2.67,2.67,0,0,0,2.53-1.82L20.72,4H22a1,1,0,0,1,1,1v7A1,1,0,0,0,24,13ZM18.43,4.54A.65.65,0,0,1,17.8,5H13.2a.65.65,0,0,1-.63-.46L12.39,4h6.22Z"/><path d="M12,15V10a1,1,0,0,0-2,0v5a1,1,0,0,0,2,0Z"/><path d="M18,11.5a2.5,2.5,0,0,0-5,0v2a2.5,2.5,0,0,0,5,0Zm-2,2a.5.5,0,0,1-1,0v-2a.5.5,0,0,1,1,0Z"/><path d="M21,10a1,1,0,0,0-2,0v5a1,1,0,0,0,2,0Z"/><path d="M20,18a1,1,0,0,0-1,1v5a1,1,0,0,0,2,0V19A1,1,0,0,0,20,18Z"/><path d="M10,22.5a2.5,2.5,0,0,0,5,0v-2a2.5,2.5,0,0,0-5,0Zm2-2a.5.5,0,0,1,1,0v2a.5.5,0,0,1-1,0Z"/><path d="M16,19v5a1,1,0,0,0,2,0V19a1,1,0,0,0-2,0Z"/></g></svg>