<svg xmlns="http://www.w3.org/2000/svg" viewBox="0 0 32 32"><g id="bug"><path d="M26,19a1,1,0,0,0,.55-.17l3-2a1,1,0,0,0-1.1-1.66L25.7,17H23V13h2a1,1,0,0,0,.8-.4l3-4a1,1,0,1,0-1.6-1.2L24.5,11H23v-.42A2.59,2.59,0,0,0,20.42,8H13.18A3,3,0,0,1,18,6.75a1,1,0,0,0,.83.22A.58.58,0,0,0,19,7a1,1,0,0,0,.84-.46,5.63,5.63,0,0,1,1.7-1.7A5.55,5.55,0,0,1,24.08,4a1,1,0,0,0-.16-2,7.57,7.57,0,0,0-3.46,1.16,7.46,7.46,0,0,0-1.8,1.61A5,5,0,0,0,16,4a4.9,4.9,0,0,0-2.65.78,7.34,7.34,0,0,0-1.81-1.62A7.57,7.57,0,0,0,8.08,2a1,1,0,0,0-.16,2,5.55,5.55,0,0,1,2.54.84,5.65,5.65,0,0,1,1.43,1.33,4.77,4.77,0,0,0-.79,1.88A2.57,2.57,0,0,0,9,10.58V11H7.5L4.8,7.4A1,1,0,1,0,3.2,8.6l3,4A1,1,0,0,0,7,13H9v1a1,1,0,0,0,2,0V10.58a.58.58,0,0,1,.58-.58H15V24a1,1,0,0,0,2,0V10h3.42a.58.58,0,0,1,.58.58V23c0,2.15-2.75,4-5,4s-5-1.85-5-4V18a1,1,0,0,0-1-1H6.3L3.55,15.17a1,1,0,0,0-1.1,1.66l3,2A1,1,0,0,0,6,19H9v4H7a1,1,0,0,0-.8.4l-3,4a1,1,0,0,0,.2,1.4A1,1,0,0,0,4,29a1,1,0,0,0,.8-.4L7.5,25h2A7.58,7.58,0,0,0,16,29a7.58,7.58,0,0,0,6.54-4h2l2.7,3.6a1,1,0,0,0,.8.4,1,1,0,0,0,.6-.2,1,1,0,0,0,.2-1.4l-3-4A1,1,0,0,0,25,23H23V19Z"/></g></svg>