<svg xmlns="http://www.w3.org/2000/svg" viewBox="0 0 32 32"><g id="cmd"><path d="M29,21H19a1,1,0,0,0-.71.29l-.7.71H14.41l-.7-.71A1,1,0,0,0,13,21H6V9.14A1.14,1.14,0,0,1,7.14,8H24.86A1.14,1.14,0,0,1,26,9.14V18a1,1,0,0,0,2,0V9.14A3.15,3.15,0,0,0,24.86,6H7.14A3.15,3.15,0,0,0,4,9.14V21H3a1,1,0,0,0-1,1v1.84A3.17,3.17,0,0,0,5.16,27a1,1,0,0,0,0-2A1.16,1.16,0,0,1,4,23.84V23h8.59l.7.71A1,1,0,0,0,14,24h4a1,1,0,0,0,.71-.29l.7-.71H28v.84A1.16,1.16,0,0,1,26.84,25H11a1,1,0,0,0,0,2H26.84A3.17,3.17,0,0,0,30,23.84V22A1,1,0,0,0,29,21Z"/><path d="M10.41,13H12a1,1,0,0,0,0-2H10.41A2.41,2.41,0,0,0,8,13.41v2.18A2.41,2.41,0,0,0,10.41,18H12a1,1,0,0,0,0-2H10.41a.41.41,0,0,1-.41-.41V13.41A.41.41,0,0,1,10.41,13Z"/><path d="M15,12h0a1,1,0,1,0,1,1A1,1,0,0,0,15,12Z"/><path d="M15,15h0a1,1,0,1,0,1,1A1,1,0,0,0,15,15Z"/><path d="M17.8,11A1,1,0,0,0,17,12.2l1,5a1,1,0,0,0,1,.8l.2,0A1,1,0,0,0,20,16.8l-1-5A1,1,0,0,0,17.8,11Z"/></g></svg>