<svg xmlns="http://www.w3.org/2000/svg" viewBox="0 0 32 32"><g id="code_shield" data-name="code shield"><path d="M26.09,5.62,17,2.18a2.92,2.92,0,0,0-2,0L5.91,5.62A3,3,0,0,0,4,8.42v5.79c0,.28,0,.56,0,.84A1,1,0,0,0,6,15c0-.24,0-.49,0-.74V8.42a1,1,0,0,1,.62-.93L15.7,4.06a.78.78,0,0,1,.6,0l9.08,3.43a1,1,0,0,1,.62.93v5.79a14.38,14.38,0,0,1-6.38,12.08l-1.7,1.13a3.48,3.48,0,0,1-3.84,0l-1.7-1.13a14.17,14.17,0,0,1-5-5.72,1,1,0,0,0-1.8.86A16.1,16.1,0,0,0,11.27,28L13,29.09a5.47,5.47,0,0,0,6,0L20.73,28A16.39,16.39,0,0,0,28,14.21V8.42A3,3,0,0,0,26.09,5.62Z"/><path d="M11.71,12.29a1,1,0,0,0-1.42,0l-3,3a1,1,0,0,0,0,1.42l3,3a1,1,0,0,0,1.42,0,1,1,0,0,0,0-1.42L9.41,16l2.3-2.29A1,1,0,0,0,11.71,12.29Z"/><path d="M20.29,19.71a1,1,0,0,0,1.42,0l3-3a1,1,0,0,0,0-1.42l-3-3a1,1,0,0,0-1.42,1.42L22.59,16l-2.3,2.29A1,1,0,0,0,20.29,19.71Z"/><path d="M14,21a1,1,0,0,0,.89-.55l4-8a1,1,0,1,0-1.78-.9l-4,8a1,1,0,0,0,.44,1.34A.93.93,0,0,0,14,21Z"/></g></svg>