<svg xmlns="http://www.w3.org/2000/svg" viewBox="0 0 32 32"><g id="code"><path d="M26,4H6A4,4,0,0,0,2,8,1,1,0,0,0,4,8,2,2,0,0,1,6,6H26a2,2,0,0,1,2,2V24a2,2,0,0,1-2,2H6a2,2,0,0,1-2-2V12a1,1,0,0,0-2,0V24a4,4,0,0,0,4,4H26a4,4,0,0,0,4-4V8A4,4,0,0,0,26,4Z"/><path d="M11.71,11.29a1,1,0,0,0-1.42,0l-4,4a1,1,0,0,0,0,1.42l4,4a1,1,0,0,0,1.42,0,1,1,0,0,0,0-1.42L8.41,16l3.3-3.29A1,1,0,0,0,11.71,11.29Z"/><path d="M20.29,20.71a1,1,0,0,0,1.42,0l4-4a1,1,0,0,0,0-1.42l-4-4a1,1,0,0,0-1.42,1.42L23.59,16l-3.3,3.29A1,1,0,0,0,20.29,20.71Z"/><path d="M14,23a1,1,0,0,0,.95-.68l4-12a1,1,0,1,0-1.9-.64l-4,12A1,1,0,0,0,13.68,23,1.25,1.25,0,0,0,14,23Z"/></g></svg>