<svg xmlns="http://www.w3.org/2000/svg" viewBox="0 0 32 32"><g id="code_2" data-name="code 2"><path d="M22,18.74V6.26A3.26,3.26,0,0,0,18.74,3H5.26A3.26,3.26,0,0,0,2,6.26V18.74A3.26,3.26,0,0,0,5.26,22H18.74A3.26,3.26,0,0,0,22,18.74Zm-18,0V6.26A1.27,1.27,0,0,1,5.26,5H18.74A1.27,1.27,0,0,1,20,6.26V18.74A1.27,1.27,0,0,1,18.74,20H5.26A1.27,1.27,0,0,1,4,18.74Z"/><path d="M26.74,11H25a1,1,0,0,0,0,2h1.74A1.27,1.27,0,0,1,28,14.26V26.74A1.27,1.27,0,0,1,26.74,28H13.26A1.27,1.27,0,0,1,12,26.74V25a1,1,0,0,0-2,0v1.74A3.26,3.26,0,0,0,13.26,30H26.74A3.26,3.26,0,0,0,30,26.74V14.26A3.26,3.26,0,0,0,26.74,11Z"/><path d="M11.6,11.2l-4-3A1,1,0,0,0,6.4,9.8L9.33,12,6.4,14.2a1,1,0,0,0-.2,1.4A1,1,0,0,0,7,16a1,1,0,0,0,.6-.2l4-3a1,1,0,0,0,0-1.6Z"/><path d="M17,14H13a1,1,0,0,0,0,2h4a1,1,0,0,0,0-2Z"/></g></svg>