<svg xmlns="http://www.w3.org/2000/svg" viewBox="0 0 32 32"><g id="coding"><path d="M9,24a2,2,0,0,1-2-2V19.61a4,4,0,0,0-1.78-3.33L4.8,16l.42-.28A4,4,0,0,0,7,12.39V10A2,2,0,0,1,9,8,1,1,0,0,0,9,6a4,4,0,0,0-4,4v2.39a2,2,0,0,1-.89,1.67L2.45,15.17a1,1,0,0,0,0,1.66l1.66,1.11A2,2,0,0,1,5,19.61V22a4,4,0,0,0,4,4,1,1,0,0,0,0-2Z"/><path d="M29.55,15.17l-1.66-1.11A2,2,0,0,1,27,12.39V10a4,4,0,0,0-4-4,1,1,0,0,0,0,2,2,2,0,0,1,2,2v2.39a4,4,0,0,0,1.78,3.33l.42.28-.42.28A4,4,0,0,0,25,19.61V22a2,2,0,0,1-2,2,1,1,0,0,0,0,2,4,4,0,0,0,4-4V19.61a2,2,0,0,1,.89-1.67l1.66-1.11a1,1,0,0,0,0-1.66Z"/><path d="M11,15H9a1,1,0,0,0,0,2h2a1,1,0,0,0,0-2Z"/><path d="M17,15H15a1,1,0,0,0,0,2h2a1,1,0,0,0,0-2Z"/><path d="M24,16a1,1,0,0,0-1-1H21a1,1,0,0,0,0,2h2A1,1,0,0,0,24,16Z"/></g></svg>