<svg xmlns="http://www.w3.org/2000/svg" viewBox="0 0 32 32"><g id="css"><path d="M29.37,2.92a2.61,2.61,0,0,0-2-.92H4.63A2.62,2.62,0,0,0,2,5l2.6,17.25a3.6,3.6,0,0,0,1.72,2.57l7.79,4.65A3.56,3.56,0,0,0,16,30a3.64,3.64,0,0,0,1.86-.51l7.79-4.66a3.64,3.64,0,0,0,1.73-2.57,1,1,0,0,0-.85-1.13A1,1,0,0,0,25.4,22a1.63,1.63,0,0,1-.77,1.14l-7.79,4.66a1.63,1.63,0,0,1-1.68,0L7.37,23.11A1.63,1.63,0,0,1,6.6,22L4,4.72a.6.6,0,0,1,.14-.5A.64.64,0,0,1,4.63,4H27.37a.64.64,0,0,1,.48.22.6.6,0,0,1,.14.5L26,17.88a1,1,0,0,0,2,.3L30,5A2.63,2.63,0,0,0,29.37,2.92Z"/><path d="M16,22.92l-4.09-1.63-.21-1.43A1,1,0,0,0,10.57,19a1,1,0,0,0-.85,1.13l.29,2a1,1,0,0,0,.62.79l5,2a1,1,0,0,0,.74,0l5-2a1,1,0,0,0,.62-.8l2-15a1,1,0,0,0-.24-.79A1,1,0,0,0,23,6H9A1,1,0,0,0,9,8H21.86l-.67,5H10a1,1,0,0,0,0,2H20.92l-.83,6.29Z"/></g></svg>