<svg xmlns="http://www.w3.org/2000/svg" viewBox="0 0 32 32"><g id="file"><path d="M25,23a1,1,0,0,0,1-1V4.35A2.35,2.35,0,0,0,23.65,2h-10a2.57,2.57,0,0,0-1.83.76L6.76,7.83A2.57,2.57,0,0,0,6,9.66V27.21A2.79,2.79,0,0,0,8.79,30H23.21A2.79,2.79,0,0,0,26,27.21a1,1,0,0,0-2,0,.8.8,0,0,1-.79.79H8.79A.8.8,0,0,1,8,27.21V11h5a1,1,0,0,0,1-1V7a1,1,0,0,0-2,0V9H8.41l4.83-4.83A.59.59,0,0,1,13.66,4h10a.35.35,0,0,1,.35.35V22A1,1,0,0,0,25,23Z"/><path d="M19,14H11a1,1,0,0,0,0,2h8a1,1,0,0,0,0-2Z"/><path d="M19,18H11a1,1,0,0,0,0,2h8a1,1,0,0,0,0-2Z"/><path d="M19,22H11a1,1,0,0,0,0,2h8a1,1,0,0,0,0-2Z"/></g></svg>