<svg xmlns="http://www.w3.org/2000/svg" viewBox="0 0 32 32"><g id="flowchart"><path d="M27.28,9H24a1,1,0,0,0,0,2h3.28A2.72,2.72,0,0,0,30,8.28V5.72A2.72,2.72,0,0,0,27.28,3H13.72A2.72,2.72,0,0,0,11,5.72V6H5V3A1,1,0,0,0,3,3V23.08A2.92,2.92,0,0,0,5.92,26H11v.28A2.72,2.72,0,0,0,13.72,29H27.28A2.72,2.72,0,0,0,30,26.28V23.72A2.72,2.72,0,0,0,27.28,21H13.72A2.72,2.72,0,0,0,11,23.72V24H5.92A.92.92,0,0,1,5,23.08V17h6v.28A2.72,2.72,0,0,0,13.72,20H22a1,1,0,0,0,0-2H13.72a.72.72,0,0,1-.72-.72V14.72a.72.72,0,0,1,.72-.72H27.28a.72.72,0,0,1,.72.72v2.56a.72.72,0,0,1-.72.72,1,1,0,0,0,0,2A2.72,2.72,0,0,0,30,17.28V14.72A2.72,2.72,0,0,0,27.28,12H13.72A2.72,2.72,0,0,0,11,14.72V15H5V8h6v.28A2.72,2.72,0,0,0,13.72,11H18a1,1,0,0,0,0-2H13.72A.72.72,0,0,1,13,8.28V5.72A.72.72,0,0,1,13.72,5H27.28a.72.72,0,0,1,.72.72V8.28A.72.72,0,0,1,27.28,9ZM13,23.72a.72.72,0,0,1,.72-.72H27.28a.72.72,0,0,1,.72.72v2.56a.72.72,0,0,1-.72.72H13.72a.72.72,0,0,1-.72-.72Z"/></g></svg>