<svg xmlns="http://www.w3.org/2000/svg" viewBox="0 0 32 32"><g id="folder"><path d="M26.88,9H15.31a1.11,1.11,0,0,1-1-.62l-.83-1.65A3.09,3.09,0,0,0,10.69,5H5.13A3.13,3.13,0,0,0,2,8.13V24.88A3.13,3.13,0,0,0,5.13,28H11a1,1,0,0,0,0-2H5.13A1.12,1.12,0,0,1,4,24.88V8.13A1.12,1.12,0,0,1,5.13,7h5.56a1.11,1.11,0,0,1,1,.62l.83,1.65A3.09,3.09,0,0,0,15.31,11H26.88A1.12,1.12,0,0,1,28,12.13V24.88A1.12,1.12,0,0,1,26.88,26H17a1,1,0,0,0,0,2h9.88A3.12,3.12,0,0,0,30,24.88V12.13A3.13,3.13,0,0,0,26.88,9Z"/><path d="M10.2,21.6a1,1,0,0,0,.8.4,1,1,0,0,0,.6-.2l4-3a1,1,0,0,0,0-1.6l-4-3a1,1,0,0,0-1.2,1.6L13.33,18,10.4,20.2A1,1,0,0,0,10.2,21.6Z"/><path d="M17,22h5a1,1,0,0,0,0-2H17a1,1,0,0,0,0,2Z"/></g></svg>