<?xml version="1.0" encoding="UTF-8"?>
<svg xmlns="http://www.w3.org/2000/svg" xmlns:xlink="http://www.w3.org/1999/xlink" width="36pt" height="36.000001pt" viewBox="0 0 36 36.000001" version="1.2">
<defs>
<clipPath id="clip1">
  <path d="M 0.488281 3 L 34 3 L 34 32 L 0.488281 32 Z M 0.488281 3 "/>
</clipPath>
</defs>
<g id="surface1">
<path style=" stroke:none;fill-rule:nonzero;fill:rgb(100%,54.899597%,0%);fill-opacity:1;" d="M 24.976562 21.523438 C 25.285156 21.703125 25.679688 21.59375 25.859375 21.285156 C 26.035156 20.972656 25.929688 20.578125 25.621094 20.402344 L 20.011719 17.148438 L 20.011719 9.996094 C 20.011719 9.636719 19.722656 9.347656 19.363281 9.347656 C 19.007812 9.347656 18.71875 9.636719 18.71875 9.996094 L 18.71875 17.898438 L 24.976562 21.523438 "/>
<g clip-path="url(#clip1)" clip-rule="nonzero">
<path style=" stroke:none;fill-rule:nonzero;fill:rgb(100%,54.899597%,0%);fill-opacity:1;" d="M 12.183594 17.609375 L 7.847656 17.609375 C 7.847656 11.179688 13.039062 5.964844 19.445312 5.964844 C 25.847656 5.964844 31.042969 11.179688 31.042969 17.609375 C 31.042969 24.042969 25.847656 29.257812 19.445312 29.257812 C 18.160156 29.257812 16.886719 29.042969 15.671875 28.621094 C 14.980469 28.382812 14.222656 28.753906 13.984375 29.453125 C 13.746094 30.148438 14.117188 30.910156 14.808594 31.148438 C 22.253906 33.71875 30.367188 29.742188 32.925781 22.265625 C 35.484375 14.789062 31.527344 6.644531 24.082031 4.070312 C 16.636719 1.5 8.523438 5.476562 5.964844 12.953125 C 5.453125 14.453125 5.191406 16.027344 5.191406 17.609375 L 0.851562 17.609375 C 0.648438 17.609375 0.488281 17.773438 0.488281 17.976562 C 0.488281 18.070312 0.523438 18.15625 0.582031 18.226562 L 6.25 24.367188 C 6.386719 24.515625 6.621094 24.523438 6.765625 24.386719 C 6.773438 24.378906 6.777344 24.375 6.785156 24.367188 L 12.453125 18.226562 C 12.589844 18.078125 12.582031 17.84375 12.433594 17.707031 C 12.367188 17.644531 12.277344 17.609375 12.183594 17.609375 "/>
</g>
</g>
</svg>
