<?xml version="1.0" encoding="UTF-8"?>
<svg xmlns="http://www.w3.org/2000/svg" xmlns:xlink="http://www.w3.org/1999/xlink" width="36pt" height="36.000001pt" viewBox="0 0 36 36.000001" version="1.2">
<defs>
<clipPath id="clip1">
  <path d="M 0.488281 0 L 35.511719 0 L 35.511719 35.027344 L 0.488281 35.027344 Z M 0.488281 0 "/>
</clipPath>
<clipPath id="clip2">
  <path d="M 11.433594 10.507812 L 24.566406 10.507812 L 24.566406 24.371094 L 11.433594 24.371094 Z M 11.433594 10.507812 "/>
</clipPath>
</defs>
<g id="surface1">
<g clip-path="url(#clip1)" clip-rule="nonzero">
<path style=" stroke:none;fill-rule:nonzero;fill:rgb(100%,54.899597%,0%);fill-opacity:1;" d="M 18 0 C 17.425781 0 16.855469 0.0273438 16.285156 0.0859375 C 15.710938 0.140625 15.144531 0.226562 14.582031 0.335938 C 14.019531 0.449219 13.464844 0.585938 12.917969 0.753906 C 12.367188 0.921875 11.828125 1.113281 11.296875 1.332031 C 10.769531 1.550781 10.25 1.796875 9.746094 2.066406 C 9.238281 2.339844 8.746094 2.632812 8.269531 2.953125 C 7.792969 3.269531 7.332031 3.613281 6.890625 3.976562 C 6.445312 4.339844 6.023438 4.722656 5.617188 5.128906 C 5.210938 5.535156 4.824219 5.960938 4.460938 6.402344 C 4.097656 6.847656 3.757812 7.304688 3.4375 7.785156 C 3.121094 8.261719 2.824219 8.75 2.554688 9.257812 C 2.285156 9.761719 2.039062 10.28125 1.820312 10.8125 C 1.601562 11.339844 1.40625 11.878906 1.242188 12.429688 C 1.074219 12.976562 0.933594 13.535156 0.824219 14.097656 C 0.710938 14.660156 0.628906 15.226562 0.570312 15.796875 C 0.515625 16.367188 0.488281 16.941406 0.488281 17.511719 C 0.488281 18.085938 0.515625 18.660156 0.570312 19.230469 C 0.628906 19.800781 0.710938 20.367188 0.824219 20.929688 C 0.933594 21.492188 1.074219 22.046875 1.242188 22.597656 C 1.40625 23.144531 1.601562 23.6875 1.820312 24.214844 C 2.039062 24.746094 2.285156 25.261719 2.554688 25.769531 C 2.824219 26.273438 3.121094 26.765625 3.4375 27.242188 C 3.757812 27.71875 4.097656 28.179688 4.460938 28.625 C 4.824219 29.066406 5.210938 29.492188 5.617188 29.898438 C 6.023438 30.304688 6.445312 30.6875 6.890625 31.050781 C 7.332031 31.414062 7.792969 31.757812 8.269531 32.074219 C 8.746094 32.394531 9.238281 32.6875 9.746094 32.960938 C 10.25 33.230469 10.769531 33.472656 11.296875 33.695312 C 11.828125 33.914062 12.367188 34.105469 12.917969 34.273438 C 13.464844 34.4375 14.019531 34.578125 14.582031 34.691406 C 15.144531 34.800781 15.710938 34.886719 16.285156 34.941406 C 16.855469 35 17.425781 35.027344 18 35.027344 C 18.574219 35.027344 19.144531 35 19.714844 34.941406 C 20.289062 34.886719 20.855469 34.800781 21.417969 34.691406 C 21.980469 34.578125 22.535156 34.4375 23.082031 34.273438 C 23.632812 34.105469 24.171875 33.914062 24.703125 33.695312 C 25.230469 33.472656 25.75 33.230469 26.253906 32.960938 C 26.761719 32.6875 27.253906 32.394531 27.730469 32.074219 C 28.207031 31.757812 28.667969 31.414062 29.109375 31.050781 C 29.554688 30.6875 29.976562 30.304688 30.382812 29.898438 C 30.789062 29.492188 31.175781 29.066406 31.539062 28.625 C 31.902344 28.179688 32.242188 27.71875 32.5625 27.242188 C 32.878906 26.765625 33.175781 26.273438 33.445312 25.769531 C 33.714844 25.261719 33.960938 24.746094 34.179688 24.214844 C 34.398438 23.6875 34.59375 23.144531 34.757812 22.597656 C 34.925781 22.046875 35.066406 21.492188 35.175781 20.929688 C 35.289062 20.367188 35.371094 19.800781 35.429688 19.230469 C 35.484375 18.660156 35.511719 18.085938 35.511719 17.511719 C 35.511719 16.941406 35.484375 16.367188 35.429688 15.796875 C 35.371094 15.226562 35.289062 14.660156 35.175781 14.097656 C 35.066406 13.535156 34.925781 12.976562 34.757812 12.429688 C 34.59375 11.878906 34.398438 11.339844 34.179688 10.8125 C 33.960938 10.28125 33.714844 9.761719 33.445312 9.257812 C 33.175781 8.75 32.878906 8.261719 32.5625 7.785156 C 32.242188 7.304688 31.902344 6.847656 31.539062 6.402344 C 31.175781 5.960938 30.789062 5.535156 30.382812 5.128906 C 29.976562 4.722656 29.554688 4.339844 29.109375 3.976562 C 28.667969 3.613281 28.207031 3.269531 27.730469 2.953125 C 27.253906 2.632812 26.761719 2.339844 26.253906 2.066406 C 25.75 1.796875 25.230469 1.550781 24.703125 1.332031 C 24.171875 1.113281 23.632812 0.921875 23.082031 0.753906 C 22.535156 0.585938 21.980469 0.449219 21.417969 0.335938 C 20.855469 0.226562 20.289062 0.140625 19.714844 0.0859375 C 19.144531 0.0273438 18.574219 0 18 0 Z M 18 0 "/>
</g>
<g clip-path="url(#clip2)" clip-rule="nonzero">
<path style=" stroke:none;fill-rule:nonzero;fill:rgb(100%,100%,100%);fill-opacity:1;" d="M 23.46875 14.300781 L 21.269531 14.300781 L 21.269531 11.277344 C 21.269531 10.855469 20.921875 10.507812 20.492188 10.507812 L 12.214844 10.507812 C 11.785156 10.507812 11.4375 10.855469 11.4375 11.277344 L 11.4375 23.605469 C 11.4375 24.027344 11.785156 24.371094 12.214844 24.371094 L 23.46875 24.371094 C 24.070312 24.371094 24.550781 23.886719 24.550781 23.300781 L 24.550781 15.394531 C 24.5625 14.785156 24.070312 14.300781 23.46875 14.300781 Z M 21.0625 14.949219 L 22.035156 14.949219 C 22.15625 14.949219 22.253906 15.046875 22.253906 15.164062 C 22.253906 15.285156 22.15625 15.382812 22.035156 15.382812 L 21.0625 15.382812 C 20.941406 15.382812 20.84375 15.285156 20.84375 15.164062 C 20.84375 15.046875 20.941406 14.949219 21.0625 14.949219 Z M 15.582031 11.375 L 17.136719 11.375 C 17.257812 11.375 17.355469 11.472656 17.355469 11.589844 C 17.355469 11.710938 17.257812 11.808594 17.136719 11.808594 L 15.582031 11.808594 C 15.460938 11.808594 15.363281 11.710938 15.363281 11.589844 C 15.363281 11.472656 15.460938 11.375 15.582031 11.375 Z M 14.773438 11.441406 C 14.859375 11.351562 15.003906 11.351562 15.078125 11.441406 C 15.125 11.484375 15.144531 11.539062 15.144531 11.589844 C 15.144531 11.644531 15.125 11.699219 15.078125 11.742188 C 15.046875 11.785156 14.992188 11.808594 14.925781 11.808594 C 14.871094 11.808594 14.816406 11.785156 14.773438 11.742188 C 14.730469 11.699219 14.707031 11.644531 14.707031 11.589844 C 14.707031 11.539062 14.738281 11.484375 14.773438 11.441406 Z M 16.316406 23.949219 C 15.953125 23.949219 15.660156 23.65625 15.660156 23.300781 C 15.660156 22.941406 15.953125 22.652344 16.316406 22.652344 C 16.675781 22.652344 16.972656 22.941406 16.972656 23.300781 C 16.972656 23.65625 16.675781 23.949219 16.316406 23.949219 Z M 18.546875 15.382812 L 18.546875 22.207031 L 12.09375 22.207031 L 12.09375 12.566406 L 20.625 12.566406 L 20.625 14.300781 L 19.628906 14.300781 C 19.039062 14.300781 18.546875 14.785156 18.546875 15.382812 Z M 20.625 15.175781 C 20.625 15.230469 20.601562 15.285156 20.558594 15.328125 C 20.515625 15.371094 20.460938 15.394531 20.40625 15.394531 C 20.351562 15.394531 20.296875 15.371094 20.253906 15.328125 C 20.210938 15.285156 20.1875 15.230469 20.1875 15.175781 C 20.1875 15.121094 20.210938 15.066406 20.253906 15.023438 C 20.328125 14.9375 20.484375 14.9375 20.558594 15.023438 C 20.601562 15.066406 20.625 15.121094 20.625 15.175781 Z M 21.554688 24.058594 C 21.214844 24.058594 20.941406 23.789062 20.941406 23.453125 C 20.941406 23.117188 21.214844 22.84375 21.554688 22.84375 C 21.894531 22.84375 22.167969 23.117188 22.167969 23.453125 C 22.167969 23.789062 21.894531 24.058594 21.554688 24.058594 Z M 24.015625 22.53125 L 19.09375 22.53125 L 19.09375 16.03125 L 24.015625 16.03125 Z M 24.015625 22.53125 "/>
</g>
</g>
</svg>
