<?xml version="1.0" encoding="UTF-8"?>
<svg xmlns="http://www.w3.org/2000/svg" xmlns:xlink="http://www.w3.org/1999/xlink" width="36pt" height="36.000001pt" viewBox="0 0 36 36.000001" version="1.2">
<defs>
<clipPath id="clip1">
  <path d="M 0.488281 0 L 35.511719 0 L 35.511719 35.027344 L 0.488281 35.027344 Z M 0.488281 0 "/>
</clipPath>
<clipPath id="clip2">
  <path d="M 20 19 L 24 19 L 24 22.003906 L 20 22.003906 Z M 20 19 "/>
</clipPath>
<clipPath id="clip3">
  <path d="M 12 19 L 15 19 L 15 22.003906 L 12 22.003906 Z M 12 19 "/>
</clipPath>
<clipPath id="clip4">
  <path d="M 10.996094 13.25 L 24.859375 13.25 L 24.859375 21 L 10.996094 21 Z M 10.996094 13.25 "/>
</clipPath>
</defs>
<g id="surface1">
<g clip-path="url(#clip1)" clip-rule="nonzero">
<path style=" stroke:none;fill-rule:nonzero;fill:rgb(100%,54.899597%,0%);fill-opacity:1;" d="M 18 0 C 17.425781 0 16.855469 0.0273438 16.285156 0.0859375 C 15.710938 0.140625 15.144531 0.226562 14.582031 0.335938 C 14.019531 0.449219 13.464844 0.585938 12.917969 0.753906 C 12.367188 0.921875 11.828125 1.113281 11.296875 1.332031 C 10.769531 1.550781 10.25 1.796875 9.746094 2.066406 C 9.238281 2.339844 8.746094 2.632812 8.269531 2.953125 C 7.792969 3.269531 7.332031 3.613281 6.890625 3.976562 C 6.445312 4.339844 6.023438 4.722656 5.617188 5.128906 C 5.210938 5.535156 4.824219 5.960938 4.460938 6.402344 C 4.097656 6.847656 3.757812 7.304688 3.4375 7.785156 C 3.121094 8.261719 2.824219 8.75 2.554688 9.257812 C 2.285156 9.761719 2.039062 10.28125 1.820312 10.8125 C 1.601562 11.339844 1.40625 11.878906 1.242188 12.429688 C 1.074219 12.976562 0.933594 13.535156 0.824219 14.097656 C 0.710938 14.660156 0.628906 15.226562 0.570312 15.796875 C 0.515625 16.367188 0.488281 16.941406 0.488281 17.511719 C 0.488281 18.085938 0.515625 18.660156 0.570312 19.230469 C 0.628906 19.800781 0.710938 20.367188 0.824219 20.929688 C 0.933594 21.492188 1.074219 22.046875 1.242188 22.597656 C 1.40625 23.144531 1.601562 23.6875 1.820312 24.214844 C 2.039062 24.746094 2.285156 25.261719 2.554688 25.769531 C 2.824219 26.273438 3.121094 26.765625 3.4375 27.242188 C 3.757812 27.71875 4.097656 28.179688 4.460938 28.625 C 4.824219 29.066406 5.210938 29.492188 5.617188 29.898438 C 6.023438 30.304688 6.445312 30.6875 6.890625 31.050781 C 7.332031 31.414062 7.792969 31.757812 8.269531 32.074219 C 8.746094 32.394531 9.238281 32.6875 9.746094 32.960938 C 10.25 33.230469 10.769531 33.472656 11.296875 33.695312 C 11.828125 33.914062 12.367188 34.105469 12.917969 34.273438 C 13.464844 34.4375 14.019531 34.578125 14.582031 34.691406 C 15.144531 34.800781 15.710938 34.886719 16.285156 34.941406 C 16.855469 35 17.425781 35.027344 18 35.027344 C 18.574219 35.027344 19.144531 35 19.714844 34.941406 C 20.289062 34.886719 20.855469 34.800781 21.417969 34.691406 C 21.980469 34.578125 22.535156 34.4375 23.082031 34.273438 C 23.632812 34.105469 24.171875 33.914062 24.703125 33.695312 C 25.230469 33.472656 25.75 33.230469 26.253906 32.960938 C 26.761719 32.6875 27.253906 32.394531 27.730469 32.074219 C 28.207031 31.757812 28.667969 31.414062 29.109375 31.050781 C 29.554688 30.6875 29.976562 30.304688 30.382812 29.898438 C 30.789062 29.492188 31.175781 29.066406 31.539062 28.625 C 31.902344 28.179688 32.242188 27.71875 32.5625 27.242188 C 32.878906 26.765625 33.175781 26.273438 33.445312 25.769531 C 33.714844 25.261719 33.960938 24.746094 34.179688 24.214844 C 34.398438 23.6875 34.59375 23.144531 34.757812 22.597656 C 34.925781 22.046875 35.066406 21.492188 35.175781 20.929688 C 35.289062 20.367188 35.371094 19.800781 35.429688 19.230469 C 35.484375 18.660156 35.511719 18.085938 35.511719 17.511719 C 35.511719 16.941406 35.484375 16.367188 35.429688 15.796875 C 35.371094 15.226562 35.289062 14.660156 35.175781 14.097656 C 35.066406 13.535156 34.925781 12.976562 34.757812 12.429688 C 34.59375 11.878906 34.398438 11.339844 34.179688 10.8125 C 33.960938 10.28125 33.714844 9.761719 33.445312 9.257812 C 33.175781 8.75 32.878906 8.261719 32.5625 7.785156 C 32.242188 7.304688 31.902344 6.847656 31.539062 6.402344 C 31.175781 5.960938 30.789062 5.535156 30.382812 5.128906 C 29.976562 4.722656 29.554688 4.339844 29.109375 3.976562 C 28.667969 3.613281 28.207031 3.269531 27.730469 2.953125 C 27.253906 2.632812 26.761719 2.339844 26.253906 2.066406 C 25.75 1.796875 25.230469 1.550781 24.703125 1.332031 C 24.171875 1.113281 23.632812 0.921875 23.082031 0.753906 C 22.535156 0.585938 21.980469 0.449219 21.417969 0.335938 C 20.855469 0.226562 20.289062 0.140625 19.714844 0.0859375 C 19.144531 0.0273438 18.574219 0 18 0 Z M 18 0 "/>
</g>
<g clip-path="url(#clip2)" clip-rule="nonzero">
<path style=" stroke:none;fill-rule:nonzero;fill:rgb(100%,100%,100%);fill-opacity:1;" d="M 23.113281 20.769531 C 23.113281 20.085938 22.582031 19.535156 21.921875 19.535156 C 21.261719 19.535156 20.730469 20.085938 20.730469 20.769531 C 20.730469 21.457031 21.261719 22.003906 21.921875 22.003906 C 22.582031 22.003906 23.113281 21.457031 23.113281 20.769531 Z M 23.113281 20.769531 "/>
</g>
<g clip-path="url(#clip3)" clip-rule="nonzero">
<path style=" stroke:none;fill-rule:nonzero;fill:rgb(100%,100%,100%);fill-opacity:1;" d="M 13.800781 22.003906 C 14.460938 22.003906 14.992188 21.457031 14.992188 20.769531 C 14.992188 20.085938 14.460938 19.535156 13.800781 19.535156 C 13.140625 19.535156 12.609375 20.085938 12.609375 20.769531 C 12.609375 21.457031 13.152344 22.003906 13.800781 22.003906 Z M 13.800781 22.003906 "/>
</g>
<g clip-path="url(#clip4)" clip-rule="nonzero">
<path style=" stroke:none;fill-rule:nonzero;fill:rgb(100%,100%,100%);fill-opacity:1;" d="M 24.738281 19.761719 L 24.640625 19.761719 L 24.640625 17.492188 C 24.640625 17.46875 24.628906 17.449219 24.617188 17.425781 L 24.554688 17.335938 L 24.554688 17.3125 L 22.34375 13.921875 L 22.28125 13.84375 C 22.257812 13.808594 22.226562 13.808594 22.191406 13.808594 L 20.71875 13.808594 C 20.667969 13.472656 20.40625 13.25 20.082031 13.25 C 19.757812 13.25 19.496094 13.472656 19.441406 13.808594 L 11.582031 13.808594 C 11.367188 13.808594 11.214844 13.988281 11.214844 14.203125 L 11.214844 16.390625 C 11.324219 16.402344 11.863281 16.480469 11.863281 17.066406 L 11.863281 19.199219 L 11.214844 19.199219 L 11.214844 19.761719 L 11.09375 19.761719 C 11.03125 19.761719 10.996094 19.816406 10.996094 19.871094 L 10.996094 20.769531 C 10.996094 20.839844 11.03125 20.882812 11.09375 20.882812 L 12.1875 20.882812 C 12.253906 20.882812 12.296875 20.839844 12.296875 20.769531 C 12.296875 19.90625 12.980469 19.199219 13.8125 19.199219 C 14.644531 19.199219 15.328125 19.90625 15.328125 20.769531 C 15.328125 20.839844 15.371094 20.882812 15.4375 20.882812 L 20.308594 20.882812 C 20.375 20.882812 20.417969 20.839844 20.417969 20.769531 L 20.417969 20.75 C 20.417969 20.75 20.417969 20.738281 20.417969 20.726562 C 20.417969 19.863281 21.097656 19.152344 21.933594 19.152344 C 22.765625 19.152344 23.449219 19.863281 23.449219 20.726562 L 23.449219 20.769531 C 23.449219 20.839844 23.492188 20.882812 23.546875 20.882812 L 24.726562 20.882812 C 24.792969 20.882812 24.847656 20.839844 24.847656 20.769531 L 24.847656 19.871094 C 24.855469 19.816406 24.792969 19.761719 24.738281 19.761719 Z M 17.820312 17.066406 C 17.820312 17.191406 17.699219 17.289062 17.582031 17.289062 L 16.628906 17.289062 L 16.628906 18.300781 C 16.628906 18.425781 16.53125 18.527344 16.410156 18.527344 L 15.75 18.527344 C 15.632812 18.527344 15.546875 18.425781 15.546875 18.300781 L 15.546875 17.289062 L 14.558594 17.289062 C 14.441406 17.289062 14.355469 17.191406 14.355469 17.066406 L 14.355469 16.390625 C 14.355469 16.269531 14.441406 16.167969 14.558594 16.167969 L 15.546875 16.167969 L 15.546875 15.15625 C 15.546875 15.035156 15.632812 14.933594 15.75 14.933594 L 16.398438 14.933594 C 16.519531 14.933594 16.628906 15.035156 16.628906 15.15625 L 16.628906 16.167969 L 17.582031 16.167969 C 17.699219 16.167969 17.820312 16.269531 17.820312 16.390625 Z M 19.984375 17.179688 L 19.984375 14.597656 L 22.238281 14.597656 L 23.925781 17.179688 Z M 19.984375 17.179688 "/>
</g>
</g>
</svg>
