<svg id="Capa_1" enable-background="new 0 0 512 512" height="512" viewBox="0 0 512 512" width="512" xmlns="http://www.w3.org/2000/svg"><g><path d="m360 56h-200.5c-8.837 0-16-7.163-16-16v-24l8.5-16h208c8.837 0 16 7.163 16 16v32z" fill="#f6d190"/><path d="m152 32v-32c-8.836 0-16 7.163-16 16v32c0 8.836 7.164 16 16 16h208c8.836 0 16-7.164 16-16h-208c-8.836 0-16-7.164-16-16z" fill="#ecbd83"/><path d="m280 120h-40.5c-8.837 0-16-7.163-16-16v-24l8.5-16h48c8.837 0 16 7.163 16 16v32z" fill="#f6d190"/><path d="m232 96v-32c-8.836 0-16 7.163-16 16v32c0 8.836 7.164 16 16 16h48c8.836 0 16-7.164 16-16h-48c-8.836 0-16-7.164-16-16z" fill="#ecbd83"/><path d="m360 184h-200.5c-8.837 0-16-7.163-16-16v-24l8.5-16h208c8.837 0 16 7.163 16 16v32z" fill="#f6d190"/><path d="m152 160v-32c-8.836 0-16 7.163-16 16v32c0 8.836 7.164 16 16 16h208c8.836 0 16-7.164 16-16h-208c-8.836 0-16-7.164-16-16z" fill="#ecbd83"/><path d="m360 312h-200.5c-8.837 0-16-7.163-16-16v-24l8.5-16h208c8.837 0 16 7.163 16 16v32z" fill="#f6d190"/><path d="m152 288v-32c-8.836 0-16 7.163-16 16v32c0 8.836 7.164 16 16 16h208c8.836 0 16-7.164 16-16h-208c-8.836 0-16-7.164-16-16z" fill="#ecbd83"/><path d="m360 440h-200.5c-8.837 0-16-7.163-16-16v-24l8.5-16h208c8.837 0 16 7.163 16 16v32z" fill="#f6d190"/><path d="m152 416v-32c-8.836 0-16 7.163-16 16v32c0 8.836 7.164 16 16 16h208c8.836 0 16-7.164 16-16h-208c-8.836 0-16-7.164-16-16z" fill="#ecbd83"/><path d="m360 120h-40.5c-8.837 0-16-7.163-16-16v-24l8.5-16h48c8.837 0 16 7.163 16 16v32z" fill="#ffe09f"/><path d="m312 96v-32c-8.836 0-16 7.163-16 16v32c0 8.836 7.164 16 16 16h48c8.836 0 16-7.164 16-16h-48c-8.836 0-16-7.164-16-16z" fill="#f6d190"/><path d="m200 248h-40.5c-8.837 0-16-7.163-16-16v-24l8.5-16h48c8.837 0 16 7.163 16 16v32z" fill="#ffe09f"/><path d="m152 224v-32c-8.836 0-16 7.163-16 16v32c0 8.836 7.164 16 16 16h48c8.836 0 16-7.164 16-16h-48c-8.836 0-16-7.164-16-16z" fill="#f6d190"/><path d="m280 248h-40.5c-8.837 0-16-7.163-16-16v-24l8.5-16h48c8.837 0 16 7.163 16 16v32z" fill="#f6d190"/><path d="m232 224v-32c-8.836 0-16 7.163-16 16v32c0 8.836 7.164 16 16 16h48c8.836 0 16-7.164 16-16h-48c-8.836 0-16-7.164-16-16z" fill="#ecbd83"/><path d="m280 376h-40.5c-8.837 0-16-7.163-16-16v-24l8.5-16h48c8.837 0 16 7.163 16 16v32z" fill="#f6d190"/><path d="m232 352v-32c-8.836 0-16 7.163-16 16v32c0 8.836 7.164 16 16 16h48c8.836 0 16-7.164 16-16h-48c-8.836 0-16-7.164-16-16z" fill="#ecbd83"/><path d="m360 376h-40.5c-8.837 0-16-7.163-16-16v-24l8.5-16h48c8.837 0 16 7.163 16 16v32z" fill="#ffe09f"/><path d="m312 352v-32c-8.836 0-16 7.163-16 16v32c0 8.836 7.164 16 16 16h48c8.836 0 16-7.164 16-16h-48c-8.836 0-16-7.164-16-16z" fill="#f6d190"/><path d="m200 504h-40.5c-8.837 0-16-7.163-16-16v-24l8.5-16h48c8.837 0 16 7.163 16 16v32z" fill="#f6d190"/><path d="m152 480v-32c-8.836 0-16 7.163-16 16v32c0 8.836 7.164 16 16 16h48c8.836 0 16-7.164 16-16h-48c-8.836 0-16-7.164-16-16z" fill="#ecbd83"/><path d="m280 504h-40.5c-8.837 0-16-7.163-16-16v-24l8.5-16h48c8.837 0 16 7.163 16 16v32z" fill="#ffe09f"/><path d="m232 480v-32c-8.836 0-16 7.163-16 16v32c0 8.836 7.164 16 16 16h48c8.836 0 16-7.164 16-16h-48c-8.836 0-16-7.164-16-16z" fill="#f6d190"/><path d="m360 504h-40.5c-8.837 0-16-7.163-16-16v-24l8.5-16h48c8.837 0 16 7.163 16 16v32z" fill="#f6d190"/><path d="m312 480v-32c-8.836 0-16 7.163-16 16v32c0 8.836 7.164 16 16 16h48c8.836 0 16-7.164 16-16h-48c-8.836 0-16-7.164-16-16z" fill="#ecbd83"/></g></svg>