<?xml version="1.0" encoding="UTF-8"?>
<svg xmlns="http://www.w3.org/2000/svg" xmlns:xlink="http://www.w3.org/1999/xlink" width="36pt" height="36.000001pt" viewBox="0 0 36 36.000001" version="1.2">
<defs>
<clipPath id="clip1">
  <path d="M 0.488281 0 L 35.511719 0 L 35.511719 35.027344 L 0.488281 35.027344 Z M 0.488281 0 "/>
</clipPath>
<clipPath id="clip2">
  <path d="M 9.410156 9.644531 L 26.925781 9.644531 L 26.925781 25.699219 L 9.410156 25.699219 Z M 9.410156 9.644531 "/>
</clipPath>
</defs>
<g id="surface1">
<g clip-path="url(#clip1)" clip-rule="nonzero">
<path style=" stroke:none;fill-rule:nonzero;fill:rgb(100%,54.899597%,0%);fill-opacity:1;" d="M 18 0 C 17.425781 0 16.855469 0.0273438 16.285156 0.0859375 C 15.710938 0.140625 15.144531 0.226562 14.582031 0.335938 C 14.019531 0.449219 13.464844 0.585938 12.917969 0.753906 C 12.367188 0.921875 11.828125 1.113281 11.296875 1.332031 C 10.769531 1.550781 10.25 1.796875 9.746094 2.066406 C 9.238281 2.339844 8.746094 2.632812 8.269531 2.953125 C 7.792969 3.269531 7.332031 3.613281 6.890625 3.976562 C 6.445312 4.339844 6.023438 4.722656 5.617188 5.128906 C 5.210938 5.535156 4.824219 5.960938 4.460938 6.402344 C 4.097656 6.847656 3.757812 7.304688 3.4375 7.785156 C 3.121094 8.261719 2.824219 8.75 2.554688 9.257812 C 2.285156 9.761719 2.039062 10.28125 1.820312 10.8125 C 1.601562 11.339844 1.40625 11.878906 1.242188 12.429688 C 1.074219 12.976562 0.933594 13.535156 0.824219 14.097656 C 0.710938 14.660156 0.628906 15.226562 0.570312 15.796875 C 0.515625 16.367188 0.488281 16.941406 0.488281 17.511719 C 0.488281 18.085938 0.515625 18.660156 0.570312 19.230469 C 0.628906 19.800781 0.710938 20.367188 0.824219 20.929688 C 0.933594 21.492188 1.074219 22.046875 1.242188 22.597656 C 1.40625 23.144531 1.601562 23.6875 1.820312 24.214844 C 2.039062 24.746094 2.285156 25.261719 2.554688 25.769531 C 2.824219 26.273438 3.121094 26.765625 3.4375 27.242188 C 3.757812 27.71875 4.097656 28.179688 4.460938 28.625 C 4.824219 29.066406 5.210938 29.492188 5.617188 29.898438 C 6.023438 30.304688 6.445312 30.6875 6.890625 31.050781 C 7.332031 31.414062 7.792969 31.757812 8.269531 32.074219 C 8.746094 32.394531 9.238281 32.6875 9.746094 32.960938 C 10.25 33.230469 10.769531 33.472656 11.296875 33.695312 C 11.828125 33.914062 12.367188 34.105469 12.917969 34.273438 C 13.464844 34.4375 14.019531 34.578125 14.582031 34.691406 C 15.144531 34.800781 15.710938 34.886719 16.285156 34.941406 C 16.855469 35 17.425781 35.027344 18 35.027344 C 18.574219 35.027344 19.144531 35 19.714844 34.941406 C 20.289062 34.886719 20.855469 34.800781 21.417969 34.691406 C 21.980469 34.578125 22.535156 34.4375 23.082031 34.273438 C 23.632812 34.105469 24.171875 33.914062 24.703125 33.695312 C 25.230469 33.472656 25.75 33.230469 26.253906 32.960938 C 26.761719 32.6875 27.253906 32.394531 27.730469 32.074219 C 28.207031 31.757812 28.667969 31.414062 29.109375 31.050781 C 29.554688 30.6875 29.976562 30.304688 30.382812 29.898438 C 30.789062 29.492188 31.175781 29.066406 31.539062 28.625 C 31.902344 28.179688 32.242188 27.71875 32.5625 27.242188 C 32.878906 26.765625 33.175781 26.273438 33.445312 25.769531 C 33.714844 25.261719 33.960938 24.746094 34.179688 24.214844 C 34.398438 23.6875 34.59375 23.144531 34.757812 22.597656 C 34.925781 22.046875 35.066406 21.492188 35.175781 20.929688 C 35.289062 20.367188 35.371094 19.800781 35.429688 19.230469 C 35.484375 18.660156 35.511719 18.085938 35.511719 17.511719 C 35.511719 16.941406 35.484375 16.367188 35.429688 15.796875 C 35.371094 15.226562 35.289062 14.660156 35.175781 14.097656 C 35.066406 13.535156 34.925781 12.976562 34.757812 12.429688 C 34.59375 11.878906 34.398438 11.339844 34.179688 10.8125 C 33.960938 10.28125 33.714844 9.761719 33.445312 9.257812 C 33.175781 8.75 32.878906 8.261719 32.5625 7.785156 C 32.242188 7.304688 31.902344 6.847656 31.539062 6.402344 C 31.175781 5.960938 30.789062 5.535156 30.382812 5.128906 C 29.976562 4.722656 29.554688 4.339844 29.109375 3.976562 C 28.667969 3.613281 28.207031 3.269531 27.730469 2.953125 C 27.253906 2.632812 26.761719 2.339844 26.253906 2.066406 C 25.75 1.796875 25.230469 1.550781 24.703125 1.332031 C 24.171875 1.113281 23.632812 0.921875 23.082031 0.753906 C 22.535156 0.585938 21.980469 0.449219 21.417969 0.335938 C 20.855469 0.226562 20.289062 0.140625 19.714844 0.0859375 C 19.144531 0.0273438 18.574219 0 18 0 Z M 18 0 "/>
</g>
<g clip-path="url(#clip2)" clip-rule="nonzero">
<path style=" stroke:none;fill-rule:nonzero;fill:rgb(100%,100%,100%);fill-opacity:1;" d="M 9.984375 16.320312 L 21.210938 9.832031 C 21.464844 9.6875 21.757812 9.65625 22.019531 9.726562 L 22.023438 9.726562 C 22.285156 9.796875 22.523438 9.96875 22.671875 10.222656 L 27.101562 17.90625 C 27.25 18.160156 27.277344 18.453125 27.207031 18.714844 C 27.136719 18.980469 26.964844 19.21875 26.710938 19.367188 L 15.484375 25.851562 C 15.230469 26 14.9375 26.03125 14.675781 25.957031 C 14.410156 25.886719 14.171875 25.714844 14.023438 25.460938 L 9.59375 17.78125 C 9.445312 17.527344 9.417969 17.234375 9.488281 16.96875 C 9.558594 16.703125 9.730469 16.464844 9.984375 16.320312 Z M 22.484375 16.59375 C 23.019531 16.285156 23.703125 16.46875 24.011719 17.003906 C 24.320312 17.539062 24.136719 18.222656 23.605469 18.53125 C 23.425781 18.636719 23.230469 18.683594 23.039062 18.683594 C 23.117188 18.34375 23.074219 17.980469 22.886719 17.65625 C 22.699219 17.332031 22.40625 17.109375 22.074219 17.007812 C 22.167969 16.839844 22.308594 16.695312 22.484375 16.59375 Z M 21.046875 17.304688 C 21.632812 16.964844 22.378906 17.167969 22.71875 17.753906 C 23.054688 18.335938 22.855469 19.085938 22.269531 19.421875 C 21.683594 19.761719 20.9375 19.5625 20.601562 18.976562 C 20.261719 18.390625 20.460938 17.640625 21.046875 17.304688 Z M 11.027344 18.511719 L 22.585938 11.832031 L 21.914062 10.664062 C 21.886719 10.617188 21.84375 10.585938 21.796875 10.574219 L 21.792969 10.570312 C 21.746094 10.558594 21.695312 10.566406 21.648438 10.589844 L 10.421875 17.078125 C 10.375 17.105469 10.34375 17.148438 10.332031 17.195312 C 10.320312 17.242188 10.324219 17.296875 10.351562 17.339844 Z M 23.652344 13.679688 L 12.09375 20.359375 L 14.785156 25.023438 C 14.808594 25.070312 14.851562 25.101562 14.898438 25.113281 L 14.902344 25.113281 C 14.949219 25.125 15 25.121094 15.046875 25.09375 L 26.273438 18.605469 C 26.320312 18.582031 26.351562 18.539062 26.363281 18.488281 C 26.375 18.441406 26.371094 18.390625 26.34375 18.34375 Z M 23.652344 13.679688 "/>
</g>
</g>
</svg>
