<?xml version="1.0" encoding="UTF-8"?>
<svg xmlns="http://www.w3.org/2000/svg" xmlns:xlink="http://www.w3.org/1999/xlink" width="36pt" height="36.000001pt" viewBox="0 0 36 36.000001" version="1.2">
<defs>
<clipPath id="clip1">
  <path d="M 0.488281 0 L 35.511719 0 L 35.511719 35.027344 L 0.488281 35.027344 Z M 0.488281 0 "/>
</clipPath>
<clipPath id="clip2">
  <path d="M 11.109375 22 L 14 22 L 14 24.371094 L 11.109375 24.371094 Z M 11.109375 22 "/>
</clipPath>
<clipPath id="clip3">
  <path d="M 15 22 L 18 22 L 18 24.371094 L 15 24.371094 Z M 15 22 "/>
</clipPath>
<clipPath id="clip4">
  <path d="M 19 20 L 22 20 L 22 24.371094 L 19 24.371094 Z M 19 20 "/>
</clipPath>
<clipPath id="clip5">
  <path d="M 23 18 L 24.972656 18 L 24.972656 24.371094 L 23 24.371094 Z M 23 18 "/>
</clipPath>
<clipPath id="clip6">
  <path d="M 11.109375 14 L 19 14 L 19 22 L 11.109375 22 Z M 11.109375 14 "/>
</clipPath>
<clipPath id="clip7">
  <path d="M 18 10.507812 L 24.972656 10.507812 L 24.972656 18 L 18 18 Z M 18 10.507812 "/>
</clipPath>
<clipPath id="clip8">
  <path d="M 11.109375 13 L 12 13 L 12 15 L 11.109375 15 Z M 11.109375 13 "/>
</clipPath>
<clipPath id="clip9">
  <path d="M 12 10.507812 L 19 10.507812 L 19 15 L 12 15 Z M 12 10.507812 "/>
</clipPath>
</defs>
<g id="surface1">
<g clip-path="url(#clip1)" clip-rule="nonzero">
<path style=" stroke:none;fill-rule:nonzero;fill:rgb(100%,54.899597%,0%);fill-opacity:1;" d="M 18 0 C 17.425781 0 16.855469 0.0273438 16.285156 0.0859375 C 15.710938 0.140625 15.144531 0.226562 14.582031 0.335938 C 14.019531 0.449219 13.464844 0.585938 12.917969 0.753906 C 12.367188 0.921875 11.828125 1.113281 11.296875 1.332031 C 10.769531 1.550781 10.25 1.796875 9.746094 2.066406 C 9.238281 2.339844 8.746094 2.632812 8.269531 2.953125 C 7.792969 3.269531 7.332031 3.613281 6.890625 3.976562 C 6.445312 4.339844 6.023438 4.722656 5.617188 5.128906 C 5.210938 5.535156 4.824219 5.960938 4.460938 6.402344 C 4.097656 6.847656 3.757812 7.304688 3.4375 7.785156 C 3.121094 8.261719 2.824219 8.75 2.554688 9.257812 C 2.285156 9.761719 2.039062 10.28125 1.820312 10.8125 C 1.601562 11.339844 1.40625 11.878906 1.242188 12.429688 C 1.074219 12.976562 0.933594 13.535156 0.824219 14.097656 C 0.710938 14.660156 0.628906 15.226562 0.570312 15.796875 C 0.515625 16.367188 0.488281 16.941406 0.488281 17.511719 C 0.488281 18.085938 0.515625 18.660156 0.570312 19.230469 C 0.628906 19.800781 0.710938 20.367188 0.824219 20.929688 C 0.933594 21.492188 1.074219 22.046875 1.242188 22.597656 C 1.40625 23.144531 1.601562 23.6875 1.820312 24.214844 C 2.039062 24.746094 2.285156 25.261719 2.554688 25.769531 C 2.824219 26.273438 3.121094 26.765625 3.4375 27.242188 C 3.757812 27.71875 4.097656 28.179688 4.460938 28.625 C 4.824219 29.066406 5.210938 29.492188 5.617188 29.898438 C 6.023438 30.304688 6.445312 30.6875 6.890625 31.050781 C 7.332031 31.414062 7.792969 31.757812 8.269531 32.074219 C 8.746094 32.394531 9.238281 32.6875 9.746094 32.960938 C 10.25 33.230469 10.769531 33.472656 11.296875 33.695312 C 11.828125 33.914062 12.367188 34.105469 12.917969 34.273438 C 13.464844 34.4375 14.019531 34.578125 14.582031 34.691406 C 15.144531 34.800781 15.710938 34.886719 16.285156 34.941406 C 16.855469 35 17.425781 35.027344 18 35.027344 C 18.574219 35.027344 19.144531 35 19.714844 34.941406 C 20.289062 34.886719 20.855469 34.800781 21.417969 34.691406 C 21.980469 34.578125 22.535156 34.4375 23.082031 34.273438 C 23.632812 34.105469 24.171875 33.914062 24.703125 33.695312 C 25.230469 33.472656 25.75 33.230469 26.253906 32.960938 C 26.761719 32.6875 27.253906 32.394531 27.730469 32.074219 C 28.207031 31.757812 28.667969 31.414062 29.109375 31.050781 C 29.554688 30.6875 29.976562 30.304688 30.382812 29.898438 C 30.789062 29.492188 31.175781 29.066406 31.539062 28.625 C 31.902344 28.179688 32.242188 27.71875 32.5625 27.242188 C 32.878906 26.765625 33.175781 26.273438 33.445312 25.769531 C 33.714844 25.261719 33.960938 24.746094 34.179688 24.214844 C 34.398438 23.6875 34.59375 23.144531 34.757812 22.597656 C 34.925781 22.046875 35.066406 21.492188 35.175781 20.929688 C 35.289062 20.367188 35.371094 19.800781 35.429688 19.230469 C 35.484375 18.660156 35.511719 18.085938 35.511719 17.511719 C 35.511719 16.941406 35.484375 16.367188 35.429688 15.796875 C 35.371094 15.226562 35.289062 14.660156 35.175781 14.097656 C 35.066406 13.535156 34.925781 12.976562 34.757812 12.429688 C 34.59375 11.878906 34.398438 11.339844 34.179688 10.8125 C 33.960938 10.28125 33.714844 9.761719 33.445312 9.257812 C 33.175781 8.75 32.878906 8.261719 32.5625 7.785156 C 32.242188 7.304688 31.902344 6.847656 31.539062 6.402344 C 31.175781 5.960938 30.789062 5.535156 30.382812 5.128906 C 29.976562 4.722656 29.554688 4.339844 29.109375 3.976562 C 28.667969 3.613281 28.207031 3.269531 27.730469 2.953125 C 27.253906 2.632812 26.761719 2.339844 26.253906 2.066406 C 25.75 1.796875 25.230469 1.550781 24.703125 1.332031 C 24.171875 1.113281 23.632812 0.921875 23.082031 0.753906 C 22.535156 0.585938 21.980469 0.449219 21.417969 0.335938 C 20.855469 0.226562 20.289062 0.140625 19.714844 0.0859375 C 19.144531 0.0273438 18.574219 0 18 0 Z M 18 0 "/>
</g>
<path style=" stroke:none;fill-rule:nonzero;fill:rgb(100%,100%,100%);fill-opacity:1;" d="M 22.5625 13.164062 L 22.179688 12.894531 L 21.726562 13.523438 C 21.691406 13.515625 21.65625 13.511719 21.625 13.511719 C 21.363281 13.511719 21.152344 13.71875 21.152344 13.972656 C 21.152344 14.230469 21.363281 14.4375 21.625 14.4375 C 21.882812 14.4375 22.09375 14.230469 22.09375 13.972656 C 22.09375 13.929688 22.085938 13.882812 22.070312 13.84375 Z M 22.5625 13.164062 "/>
<g clip-path="url(#clip2)" clip-rule="nonzero">
<path style=" stroke:none;fill-rule:nonzero;fill:rgb(100%,100%,100%);fill-opacity:1;" d="M 11.289062 22.988281 L 13.167969 22.988281 L 13.167969 24.371094 L 11.289062 24.371094 Z M 11.289062 22.988281 "/>
</g>
<g clip-path="url(#clip3)" clip-rule="nonzero">
<path style=" stroke:none;fill-rule:nonzero;fill:rgb(100%,100%,100%);fill-opacity:1;" d="M 15.28125 22.523438 L 17.160156 22.523438 L 17.160156 24.371094 L 15.28125 24.371094 Z M 15.28125 22.523438 "/>
</g>
<g clip-path="url(#clip4)" clip-rule="nonzero">
<path style=" stroke:none;fill-rule:nonzero;fill:rgb(100%,100%,100%);fill-opacity:1;" d="M 19.273438 20.445312 L 21.152344 20.445312 L 21.152344 24.371094 L 19.273438 24.371094 Z M 19.273438 20.445312 "/>
</g>
<g clip-path="url(#clip5)" clip-rule="nonzero">
<path style=" stroke:none;fill-rule:nonzero;fill:rgb(100%,100%,100%);fill-opacity:1;" d="M 23.03125 18.363281 L 24.910156 18.363281 L 24.910156 24.371094 L 23.03125 24.371094 Z M 23.03125 18.363281 "/>
</g>
<g clip-path="url(#clip6)" clip-rule="nonzero">
<path style=" stroke:none;fill-rule:nonzero;fill:rgb(100%,100%,100%);fill-opacity:1;" d="M 18.335938 18.480469 L 18.335938 17.324219 L 17.566406 17.074219 C 17.515625 16.898438 17.441406 16.730469 17.355469 16.574219 L 17.683594 15.898438 C 17.453125 15.582031 17.171875 15.304688 16.847656 15.078125 L 16.164062 15.398438 C 16 15.316406 15.832031 15.246094 15.652344 15.191406 L 15.398438 14.4375 L 14.222656 14.4375 L 13.96875 15.191406 L 13.457031 15.398438 L 12.773438 15.078125 C 12.449219 15.304688 12.167969 15.582031 11.941406 15.898438 L 12.265625 16.570312 L 12.054688 17.074219 L 11.289062 17.324219 L 11.289062 18.480469 L 12.054688 18.730469 L 12.265625 19.234375 L 11.941406 19.90625 C 12.167969 20.222656 12.449219 20.5 12.773438 20.726562 L 13.457031 20.40625 L 13.96875 20.613281 L 14.222656 21.367188 L 15.398438 21.367188 L 15.652344 20.613281 C 15.832031 20.5625 16 20.492188 16.164062 20.40625 L 16.847656 20.726562 C 17.171875 20.5 17.453125 20.222656 17.679688 19.90625 L 17.355469 19.234375 C 17.441406 19.074219 17.511719 18.90625 17.566406 18.730469 Z M 15.75 19.59375 L 15.75 18.367188 C 15.75 18.109375 15.539062 17.902344 15.277344 17.902344 C 15.382812 17.765625 15.433594 17.582031 15.371094 17.382812 C 15.316406 17.195312 15.15625 17.042969 14.960938 16.996094 C 14.570312 16.902344 14.222656 17.1875 14.222656 17.554688 C 14.222656 17.6875 14.269531 17.804688 14.34375 17.902344 C 14.082031 17.902344 13.871094 18.109375 13.871094 18.367188 L 13.871094 19.59375 C 13.265625 19.265625 12.851562 18.632812 12.851562 17.902344 C 12.851562 16.839844 13.730469 15.976562 14.8125 15.976562 C 15.890625 15.976562 16.769531 16.839844 16.769531 17.902344 C 16.769531 18.632812 16.355469 19.265625 15.75 19.59375 Z M 15.75 19.59375 "/>
</g>
<g clip-path="url(#clip7)" clip-rule="nonzero">
<path style=" stroke:none;fill-rule:nonzero;fill:rgb(100%,100%,100%);fill-opacity:1;" d="M 24.910156 14.515625 L 24.910156 13.433594 L 24.195312 13.199219 C 24.144531 13.039062 24.078125 12.882812 24 12.734375 L 24.304688 12.101562 C 24.089844 11.808594 23.824219 11.550781 23.527344 11.339844 L 22.886719 11.636719 C 22.734375 11.558594 22.574219 11.492188 22.410156 11.441406 L 22.171875 10.738281 L 21.074219 10.738281 L 20.835938 11.441406 L 20.359375 11.636719 L 19.722656 11.339844 C 19.421875 11.546875 19.15625 11.808594 18.945312 12.101562 L 19.246094 12.730469 L 19.050781 13.199219 L 18.335938 13.433594 L 18.335938 14.515625 L 19.050781 14.746094 L 19.246094 15.214844 L 18.945312 15.84375 C 19.15625 16.140625 19.421875 16.398438 19.722656 16.609375 L 20.359375 16.3125 C 20.511719 16.390625 20.671875 16.457031 20.835938 16.503906 L 21.074219 17.210938 L 22.171875 17.210938 L 22.410156 16.503906 C 22.574219 16.457031 22.734375 16.390625 22.886719 16.3125 L 23.523438 16.609375 C 23.824219 16.398438 24.089844 16.140625 24.300781 15.84375 L 24 15.214844 C 24.078125 15.066406 24.144531 14.910156 24.195312 14.746094 Z M 21.625 15.824219 C 20.585938 15.824219 19.742188 14.996094 19.742188 13.972656 C 19.742188 12.953125 20.585938 12.125 21.625 12.125 C 22.660156 12.125 23.503906 12.953125 23.503906 13.972656 C 23.503906 14.996094 22.660156 15.824219 21.625 15.824219 Z M 21.625 15.824219 "/>
</g>
<g clip-path="url(#clip8)" clip-rule="nonzero">
<path style=" stroke:none;fill-rule:nonzero;fill:rgb(100%,100%,100%);fill-opacity:1;" d="M 11.175781 14.234375 L 11.648438 13.984375 L 11.867188 14.394531 L 11.398438 14.640625 Z M 11.175781 14.234375 "/>
</g>
<g clip-path="url(#clip9)" clip-rule="nonzero">
<path style=" stroke:none;fill-rule:nonzero;fill:rgb(100%,100%,100%);fill-opacity:1;" d="M 18.535156 10.617188 C 18.492188 10.550781 18.414062 10.507812 18.335938 10.507812 L 16.691406 10.507812 L 16.691406 10.96875 L 17.394531 10.96875 L 12.117188 13.738281 L 12.335938 14.148438 L 17.792969 11.285156 L 17.417969 12.023438 L 17.839844 12.230469 L 18.542969 10.84375 C 18.582031 10.769531 18.578125 10.6875 18.535156 10.617188 Z M 18.535156 10.617188 "/>
</g>
</g>
</svg>
