<?xml version="1.0" encoding="UTF-8"?>
<svg xmlns="http://www.w3.org/2000/svg" xmlns:xlink="http://www.w3.org/1999/xlink" width="36pt" height="36.000001pt" viewBox="0 0 36 36.000001" version="1.2">
<defs>
<clipPath id="clip1">
  <path d="M 0.488281 0 L 35.511719 0 L 35.511719 35.027344 L 0.488281 35.027344 Z M 0.488281 0 "/>
</clipPath>
<clipPath id="clip2">
  <path d="M 10.996094 15.359375 L 24.859375 15.359375 L 24.859375 19.738281 L 10.996094 19.738281 Z M 10.996094 15.359375 "/>
</clipPath>
</defs>
<g id="surface1">
<g clip-path="url(#clip1)" clip-rule="nonzero">
<path style=" stroke:none;fill-rule:nonzero;fill:rgb(100%,54.899597%,0%);fill-opacity:1;" d="M 18 0 C 17.425781 0 16.855469 0.0273438 16.285156 0.0859375 C 15.710938 0.140625 15.144531 0.226562 14.582031 0.335938 C 14.019531 0.449219 13.464844 0.585938 12.917969 0.753906 C 12.367188 0.921875 11.828125 1.113281 11.296875 1.332031 C 10.769531 1.550781 10.25 1.796875 9.746094 2.066406 C 9.238281 2.339844 8.746094 2.632812 8.269531 2.953125 C 7.792969 3.269531 7.332031 3.613281 6.890625 3.976562 C 6.445312 4.339844 6.023438 4.722656 5.617188 5.128906 C 5.210938 5.535156 4.824219 5.960938 4.460938 6.402344 C 4.097656 6.847656 3.757812 7.304688 3.4375 7.785156 C 3.121094 8.261719 2.824219 8.75 2.554688 9.257812 C 2.285156 9.761719 2.039062 10.28125 1.820312 10.8125 C 1.601562 11.339844 1.40625 11.878906 1.242188 12.429688 C 1.074219 12.976562 0.933594 13.535156 0.824219 14.097656 C 0.710938 14.660156 0.628906 15.226562 0.570312 15.796875 C 0.515625 16.367188 0.488281 16.941406 0.488281 17.511719 C 0.488281 18.085938 0.515625 18.660156 0.570312 19.230469 C 0.628906 19.800781 0.710938 20.367188 0.824219 20.929688 C 0.933594 21.492188 1.074219 22.046875 1.242188 22.597656 C 1.40625 23.144531 1.601562 23.6875 1.820312 24.214844 C 2.039062 24.746094 2.285156 25.261719 2.554688 25.769531 C 2.824219 26.273438 3.121094 26.765625 3.4375 27.242188 C 3.757812 27.71875 4.097656 28.179688 4.460938 28.625 C 4.824219 29.066406 5.210938 29.492188 5.617188 29.898438 C 6.023438 30.304688 6.445312 30.6875 6.890625 31.050781 C 7.332031 31.414062 7.792969 31.757812 8.269531 32.074219 C 8.746094 32.394531 9.238281 32.6875 9.746094 32.960938 C 10.25 33.230469 10.769531 33.472656 11.296875 33.695312 C 11.828125 33.914062 12.367188 34.105469 12.917969 34.273438 C 13.464844 34.4375 14.019531 34.578125 14.582031 34.691406 C 15.144531 34.800781 15.710938 34.886719 16.285156 34.941406 C 16.855469 35 17.425781 35.027344 18 35.027344 C 18.574219 35.027344 19.144531 35 19.714844 34.941406 C 20.289062 34.886719 20.855469 34.800781 21.417969 34.691406 C 21.980469 34.578125 22.535156 34.4375 23.082031 34.273438 C 23.632812 34.105469 24.171875 33.914062 24.703125 33.695312 C 25.230469 33.472656 25.75 33.230469 26.253906 32.960938 C 26.761719 32.6875 27.253906 32.394531 27.730469 32.074219 C 28.207031 31.757812 28.667969 31.414062 29.109375 31.050781 C 29.554688 30.6875 29.976562 30.304688 30.382812 29.898438 C 30.789062 29.492188 31.175781 29.066406 31.539062 28.625 C 31.902344 28.179688 32.242188 27.71875 32.5625 27.242188 C 32.878906 26.765625 33.175781 26.273438 33.445312 25.769531 C 33.714844 25.261719 33.960938 24.746094 34.179688 24.214844 C 34.398438 23.6875 34.59375 23.144531 34.757812 22.597656 C 34.925781 22.046875 35.066406 21.492188 35.175781 20.929688 C 35.289062 20.367188 35.371094 19.800781 35.429688 19.230469 C 35.484375 18.660156 35.511719 18.085938 35.511719 17.511719 C 35.511719 16.941406 35.484375 16.367188 35.429688 15.796875 C 35.371094 15.226562 35.289062 14.660156 35.175781 14.097656 C 35.066406 13.535156 34.925781 12.976562 34.757812 12.429688 C 34.59375 11.878906 34.398438 11.339844 34.179688 10.8125 C 33.960938 10.28125 33.714844 9.761719 33.445312 9.257812 C 33.175781 8.75 32.878906 8.261719 32.5625 7.785156 C 32.242188 7.304688 31.902344 6.847656 31.539062 6.402344 C 31.175781 5.960938 30.789062 5.535156 30.382812 5.128906 C 29.976562 4.722656 29.554688 4.339844 29.109375 3.976562 C 28.667969 3.613281 28.207031 3.269531 27.730469 2.953125 C 27.253906 2.632812 26.761719 2.339844 26.253906 2.066406 C 25.75 1.796875 25.230469 1.550781 24.703125 1.332031 C 24.171875 1.113281 23.632812 0.921875 23.082031 0.753906 C 22.535156 0.585938 21.980469 0.449219 21.417969 0.335938 C 20.855469 0.226562 20.289062 0.140625 19.714844 0.0859375 C 19.144531 0.0273438 18.574219 0 18 0 Z M 18 0 "/>
</g>
<g clip-path="url(#clip2)" clip-rule="nonzero">
<path style=" stroke:none;fill-rule:evenodd;fill:rgb(100%,100%,100%);fill-opacity:1;" d="M 13.027344 19.554688 C 11.90625 19.554688 10.996094 18.617188 10.996094 17.464844 C 10.996094 16.3125 11.90625 15.375 13.027344 15.375 C 14.148438 15.375 15.054688 16.3125 15.054688 17.464844 C 15.054688 18.617188 14.148438 19.554688 13.027344 19.554688 Z M 13.027344 18.71875 C 13.699219 18.71875 14.246094 18.15625 14.246094 17.464844 C 14.246094 16.773438 13.699219 16.210938 13.027344 16.210938 C 12.351562 16.210938 11.808594 16.773438 11.808594 17.464844 C 11.808594 18.15625 12.351562 18.71875 13.027344 18.71875 Z M 17.898438 19.554688 C 16.777344 19.554688 15.867188 18.617188 15.867188 17.464844 C 15.867188 16.3125 16.777344 15.375 17.898438 15.375 C 19.019531 15.375 19.929688 16.3125 19.929688 17.464844 C 19.929688 18.617188 19.019531 19.554688 17.898438 19.554688 Z M 17.898438 18.71875 C 18.574219 18.71875 19.117188 18.15625 19.117188 17.464844 C 19.117188 16.773438 18.574219 16.210938 17.898438 16.210938 C 17.226562 16.210938 16.679688 16.773438 16.679688 17.464844 C 16.679688 18.15625 17.226562 18.71875 17.898438 18.71875 Z M 22.773438 19.554688 C 21.652344 19.554688 20.742188 18.617188 20.742188 17.464844 C 20.742188 16.3125 21.652344 15.375 22.773438 15.375 C 23.894531 15.375 24.804688 16.3125 24.804688 17.464844 C 24.804688 18.617188 23.894531 19.554688 22.773438 19.554688 Z M 22.773438 18.71875 C 23.445312 18.71875 23.992188 18.15625 23.992188 17.464844 C 23.992188 16.773438 23.445312 16.210938 22.773438 16.210938 C 22.101562 16.210938 21.554688 16.773438 21.554688 17.464844 C 21.554688 18.15625 22.101562 18.71875 22.773438 18.71875 Z M 22.773438 18.71875 "/>
</g>
</g>
</svg>
