<?xml version="1.0" encoding="UTF-8"?>
<svg xmlns="http://www.w3.org/2000/svg" xmlns:xlink="http://www.w3.org/1999/xlink" width="36pt" height="36.000001pt" viewBox="0 0 36 36.000001" version="1.2">
<defs>
<clipPath id="clip1">
  <path d="M 0.488281 0 L 35.511719 0 L 35.511719 35.027344 L 0.488281 35.027344 Z M 0.488281 0 "/>
</clipPath>
<clipPath id="clip2">
  <path d="M 13 10.507812 L 24.664062 10.507812 L 24.664062 17 L 13 17 Z M 13 10.507812 "/>
</clipPath>
<clipPath id="clip3">
  <path d="M 11.527344 17 L 24.664062 17 L 24.664062 24.371094 L 11.527344 24.371094 Z M 11.527344 17 "/>
</clipPath>
</defs>
<g id="surface1">
<g clip-path="url(#clip1)" clip-rule="nonzero">
<path style=" stroke:none;fill-rule:nonzero;fill:rgb(100%,54.899597%,0%);fill-opacity:1;" d="M 18 0 C 17.425781 0 16.855469 0.0273438 16.285156 0.0859375 C 15.710938 0.140625 15.144531 0.226562 14.582031 0.335938 C 14.019531 0.449219 13.464844 0.585938 12.917969 0.753906 C 12.367188 0.921875 11.828125 1.113281 11.296875 1.332031 C 10.769531 1.550781 10.25 1.796875 9.746094 2.066406 C 9.238281 2.339844 8.746094 2.632812 8.269531 2.953125 C 7.792969 3.269531 7.332031 3.613281 6.890625 3.976562 C 6.445312 4.339844 6.023438 4.722656 5.617188 5.128906 C 5.210938 5.535156 4.824219 5.960938 4.460938 6.402344 C 4.097656 6.847656 3.757812 7.304688 3.4375 7.785156 C 3.121094 8.261719 2.824219 8.75 2.554688 9.257812 C 2.285156 9.761719 2.039062 10.28125 1.820312 10.8125 C 1.601562 11.339844 1.40625 11.878906 1.242188 12.429688 C 1.074219 12.976562 0.933594 13.535156 0.824219 14.097656 C 0.710938 14.660156 0.628906 15.226562 0.570312 15.796875 C 0.515625 16.367188 0.488281 16.941406 0.488281 17.511719 C 0.488281 18.085938 0.515625 18.660156 0.570312 19.230469 C 0.628906 19.800781 0.710938 20.367188 0.824219 20.929688 C 0.933594 21.492188 1.074219 22.046875 1.242188 22.597656 C 1.40625 23.144531 1.601562 23.6875 1.820312 24.214844 C 2.039062 24.746094 2.285156 25.261719 2.554688 25.769531 C 2.824219 26.273438 3.121094 26.765625 3.4375 27.242188 C 3.757812 27.71875 4.097656 28.179688 4.460938 28.625 C 4.824219 29.066406 5.210938 29.492188 5.617188 29.898438 C 6.023438 30.304688 6.445312 30.6875 6.890625 31.050781 C 7.332031 31.414062 7.792969 31.757812 8.269531 32.074219 C 8.746094 32.394531 9.238281 32.6875 9.746094 32.960938 C 10.25 33.230469 10.769531 33.472656 11.296875 33.695312 C 11.828125 33.914062 12.367188 34.105469 12.917969 34.273438 C 13.464844 34.4375 14.019531 34.578125 14.582031 34.691406 C 15.144531 34.800781 15.710938 34.886719 16.285156 34.941406 C 16.855469 35 17.425781 35.027344 18 35.027344 C 18.574219 35.027344 19.144531 35 19.714844 34.941406 C 20.289062 34.886719 20.855469 34.800781 21.417969 34.691406 C 21.980469 34.578125 22.535156 34.4375 23.082031 34.273438 C 23.632812 34.105469 24.171875 33.914062 24.703125 33.695312 C 25.230469 33.472656 25.75 33.230469 26.253906 32.960938 C 26.761719 32.6875 27.253906 32.394531 27.730469 32.074219 C 28.207031 31.757812 28.667969 31.414062 29.109375 31.050781 C 29.554688 30.6875 29.976562 30.304688 30.382812 29.898438 C 30.789062 29.492188 31.175781 29.066406 31.539062 28.625 C 31.902344 28.179688 32.242188 27.71875 32.5625 27.242188 C 32.878906 26.765625 33.175781 26.273438 33.445312 25.769531 C 33.714844 25.261719 33.960938 24.746094 34.179688 24.214844 C 34.398438 23.6875 34.59375 23.144531 34.757812 22.597656 C 34.925781 22.046875 35.066406 21.492188 35.175781 20.929688 C 35.289062 20.367188 35.371094 19.800781 35.429688 19.230469 C 35.484375 18.660156 35.511719 18.085938 35.511719 17.511719 C 35.511719 16.941406 35.484375 16.367188 35.429688 15.796875 C 35.371094 15.226562 35.289062 14.660156 35.175781 14.097656 C 35.066406 13.535156 34.925781 12.976562 34.757812 12.429688 C 34.59375 11.878906 34.398438 11.339844 34.179688 10.8125 C 33.960938 10.28125 33.714844 9.761719 33.445312 9.257812 C 33.175781 8.75 32.878906 8.261719 32.5625 7.785156 C 32.242188 7.304688 31.902344 6.847656 31.539062 6.402344 C 31.175781 5.960938 30.789062 5.535156 30.382812 5.128906 C 29.976562 4.722656 29.554688 4.339844 29.109375 3.976562 C 28.667969 3.613281 28.207031 3.269531 27.730469 2.953125 C 27.253906 2.632812 26.761719 2.339844 26.253906 2.066406 C 25.75 1.796875 25.230469 1.550781 24.703125 1.332031 C 24.171875 1.113281 23.632812 0.921875 23.082031 0.753906 C 22.535156 0.585938 21.980469 0.449219 21.417969 0.335938 C 20.855469 0.226562 20.289062 0.140625 19.714844 0.0859375 C 19.144531 0.0273438 18.574219 0 18 0 Z M 18 0 "/>
</g>
<g clip-path="url(#clip2)" clip-rule="nonzero">
<path style=" stroke:none;fill-rule:nonzero;fill:rgb(100%,100%,100%);fill-opacity:1;" d="M 22.8125 10.507812 L 15.566406 10.507812 C 15.324219 10.507812 15.089844 10.554688 14.863281 10.644531 C 14.636719 10.738281 14.4375 10.867188 14.265625 11.035156 C 14.089844 11.203125 13.957031 11.398438 13.863281 11.617188 C 13.769531 11.839844 13.722656 12.070312 13.722656 12.308594 L 13.722656 15.109375 C 13.722656 15.347656 13.769531 15.574219 13.863281 15.796875 C 13.957031 16.015625 14.089844 16.210938 14.265625 16.378906 C 14.4375 16.550781 14.636719 16.679688 14.863281 16.769531 C 15.089844 16.863281 15.324219 16.90625 15.566406 16.90625 L 22.8125 16.90625 C 23.054688 16.90625 23.289062 16.863281 23.515625 16.769531 C 23.742188 16.679688 23.941406 16.550781 24.113281 16.378906 C 24.289062 16.210938 24.421875 16.015625 24.515625 15.796875 C 24.609375 15.574219 24.65625 15.347656 24.65625 15.109375 L 24.65625 12.308594 C 24.65625 12.070312 24.609375 11.839844 24.515625 11.617188 C 24.421875 11.398438 24.289062 11.203125 24.113281 11.035156 C 23.941406 10.867188 23.742188 10.738281 23.515625 10.644531 C 23.289062 10.554688 23.054688 10.507812 22.8125 10.507812 Z M 23.5625 14.699219 C 23.5625 14.746094 23.535156 14.773438 23.484375 14.773438 C 23.351562 14.773438 23.222656 14.800781 23.097656 14.851562 C 22.972656 14.902344 22.863281 14.972656 22.769531 15.066406 C 22.671875 15.160156 22.597656 15.265625 22.546875 15.386719 C 22.496094 15.507812 22.46875 15.632812 22.46875 15.765625 C 22.46875 15.8125 22.441406 15.839844 22.390625 15.839844 L 15.988281 15.839844 C 15.9375 15.839844 15.910156 15.8125 15.910156 15.765625 C 15.910156 15.632812 15.882812 15.507812 15.832031 15.386719 C 15.78125 15.265625 15.707031 15.160156 15.613281 15.066406 C 15.515625 14.972656 15.40625 14.902344 15.28125 14.851562 C 15.15625 14.800781 15.027344 14.773438 14.894531 14.773438 C 14.84375 14.773438 14.820312 14.746094 14.816406 14.699219 L 14.816406 12.714844 C 14.820312 12.667969 14.84375 12.644531 14.894531 12.640625 C 15.027344 12.640625 15.15625 12.617188 15.28125 12.566406 C 15.40625 12.515625 15.515625 12.441406 15.613281 12.351562 C 15.707031 12.257812 15.78125 12.148438 15.832031 12.027344 C 15.882812 11.90625 15.910156 11.78125 15.910156 11.648438 C 15.910156 11.601562 15.9375 11.578125 15.988281 11.574219 L 22.390625 11.574219 C 22.441406 11.578125 22.46875 11.601562 22.46875 11.648438 C 22.46875 11.78125 22.496094 11.90625 22.546875 12.027344 C 22.597656 12.148438 22.671875 12.257812 22.769531 12.351562 C 22.863281 12.441406 22.972656 12.515625 23.097656 12.566406 C 23.222656 12.617188 23.351562 12.640625 23.484375 12.640625 C 23.535156 12.644531 23.5625 12.667969 23.5625 12.714844 Z M 23.5625 14.699219 "/>
</g>
<path style=" stroke:none;fill-rule:nonzero;fill:rgb(100%,100%,100%);fill-opacity:1;" d="M 20.828125 13.707031 C 20.828125 13.917969 20.789062 14.125 20.703125 14.320312 C 20.621094 14.515625 20.503906 14.6875 20.347656 14.839844 C 20.195312 14.988281 20.019531 15.105469 19.816406 15.1875 C 19.617188 15.265625 19.40625 15.308594 19.191406 15.308594 C 18.972656 15.308594 18.761719 15.265625 18.5625 15.1875 C 18.359375 15.105469 18.183594 14.988281 18.03125 14.839844 C 17.875 14.6875 17.757812 14.515625 17.675781 14.320312 C 17.589844 14.125 17.550781 13.917969 17.550781 13.707031 C 17.550781 13.496094 17.589844 13.292969 17.675781 13.09375 C 17.757812 12.898438 17.875 12.726562 18.03125 12.578125 C 18.183594 12.425781 18.359375 12.3125 18.5625 12.230469 C 18.761719 12.148438 18.972656 12.109375 19.191406 12.109375 C 19.40625 12.109375 19.617188 12.148438 19.816406 12.230469 C 20.019531 12.3125 20.195312 12.425781 20.347656 12.578125 C 20.503906 12.726562 20.621094 12.898438 20.703125 13.09375 C 20.789062 13.292969 20.828125 13.496094 20.828125 13.707031 Z M 20.828125 13.707031 "/>
<g clip-path="url(#clip3)" clip-rule="nonzero">
<path style=" stroke:none;fill-rule:nonzero;fill:rgb(100%,100%,100%);fill-opacity:1;" d="M 12.238281 24.371094 L 13.722656 24.371094 C 14.078125 24.367188 14.324219 24.207031 14.464844 23.886719 C 14.621094 23.546875 14.886719 23.332031 15.257812 23.238281 L 18.121094 22.542969 C 19.359375 22.238281 20.503906 21.738281 21.558594 21.03125 L 24.382812 19.136719 C 24.5625 19.019531 24.652344 18.859375 24.65625 18.648438 L 24.65625 18.566406 C 24.65625 18.402344 24.597656 18.261719 24.480469 18.144531 C 24.359375 18.03125 24.214844 17.972656 24.046875 17.972656 L 23.394531 18.050781 L 20.917969 18.65625 C 20.496094 18.769531 20.15625 19 19.898438 19.339844 C 19.871094 19.382812 19.832031 19.414062 19.785156 19.433594 L 19.40625 19.59375 C 18.984375 19.777344 18.546875 19.921875 18.097656 20.03125 L 15.863281 20.5625 C 15.742188 20.59375 15.625 20.582031 15.511719 20.519531 C 15.402344 20.460938 15.328125 20.371094 15.292969 20.25 C 15.261719 20.132812 15.277344 20.023438 15.34375 19.917969 C 15.40625 19.8125 15.5 19.746094 15.621094 19.71875 L 18.59375 18.988281 C 18.816406 18.945312 18.957031 18.8125 19.011719 18.59375 C 19.046875 18.4375 19.011719 18.292969 18.910156 18.167969 C 18.808594 18.039062 18.671875 17.976562 18.507812 17.972656 L 15.6875 17.972656 C 15.417969 17.972656 15.15625 18.003906 14.894531 18.066406 L 14.476562 18.171875 C 13.765625 18.34375 13.183594 18.710938 12.726562 19.265625 L 12.453125 19.613281 C 11.847656 20.347656 11.539062 21.183594 11.539062 22.128906 L 11.539062 23.6875 C 11.539062 23.875 11.605469 24.039062 11.742188 24.171875 C 11.878906 24.304688 12.046875 24.371094 12.238281 24.371094 Z M 12.238281 24.371094 "/>
</g>
</g>
</svg>
