<?xml version="1.0" encoding="UTF-8"?>
<svg xmlns="http://www.w3.org/2000/svg" xmlns:xlink="http://www.w3.org/1999/xlink" width="36pt" height="36.000001pt" viewBox="0 0 36 36.000001" version="1.2">
<defs>
<clipPath id="clip1">
  <path d="M 0.488281 0 L 35.511719 0 L 35.511719 35.027344 L 0.488281 35.027344 Z M 0.488281 0 "/>
</clipPath>
<clipPath id="clip2">
  <path d="M 10.996094 12.121094 L 19.757812 12.121094 L 19.757812 24.332031 L 10.996094 24.332031 Z M 10.996094 12.121094 "/>
</clipPath>
<clipPath id="clip3">
  <path d="M 17.566406 22.136719 L 19.757812 22.136719 L 19.757812 24.332031 L 17.566406 24.332031 Z M 17.566406 22.136719 "/>
</clipPath>
<clipPath id="clip4">
  <path d="M 16 10.507812 L 24.859375 10.507812 L 24.859375 19 L 16 19 Z M 16 10.507812 "/>
</clipPath>
</defs>
<g id="surface1">
<g clip-path="url(#clip1)" clip-rule="nonzero">
<path style=" stroke:none;fill-rule:nonzero;fill:rgb(100%,54.899597%,0%);fill-opacity:1;" d="M 18 0 C 17.425781 0 16.855469 0.0273438 16.285156 0.0859375 C 15.710938 0.140625 15.144531 0.226562 14.582031 0.335938 C 14.019531 0.449219 13.464844 0.585938 12.917969 0.753906 C 12.367188 0.921875 11.828125 1.113281 11.296875 1.332031 C 10.769531 1.550781 10.25 1.796875 9.746094 2.066406 C 9.238281 2.339844 8.746094 2.632812 8.269531 2.953125 C 7.792969 3.269531 7.332031 3.613281 6.890625 3.976562 C 6.445312 4.339844 6.023438 4.722656 5.617188 5.128906 C 5.210938 5.535156 4.824219 5.960938 4.460938 6.402344 C 4.097656 6.847656 3.757812 7.304688 3.4375 7.785156 C 3.121094 8.261719 2.824219 8.75 2.554688 9.257812 C 2.285156 9.761719 2.039062 10.28125 1.820312 10.8125 C 1.601562 11.339844 1.40625 11.878906 1.242188 12.429688 C 1.074219 12.976562 0.933594 13.535156 0.824219 14.097656 C 0.710938 14.660156 0.628906 15.226562 0.570312 15.796875 C 0.515625 16.367188 0.488281 16.941406 0.488281 17.511719 C 0.488281 18.085938 0.515625 18.660156 0.570312 19.230469 C 0.628906 19.800781 0.710938 20.367188 0.824219 20.929688 C 0.933594 21.492188 1.074219 22.046875 1.242188 22.597656 C 1.40625 23.144531 1.601562 23.6875 1.820312 24.214844 C 2.039062 24.746094 2.285156 25.261719 2.554688 25.769531 C 2.824219 26.273438 3.121094 26.765625 3.4375 27.242188 C 3.757812 27.71875 4.097656 28.179688 4.460938 28.625 C 4.824219 29.066406 5.210938 29.492188 5.617188 29.898438 C 6.023438 30.304688 6.445312 30.6875 6.890625 31.050781 C 7.332031 31.414062 7.792969 31.757812 8.269531 32.074219 C 8.746094 32.394531 9.238281 32.6875 9.746094 32.960938 C 10.25 33.230469 10.769531 33.472656 11.296875 33.695312 C 11.828125 33.914062 12.367188 34.105469 12.917969 34.273438 C 13.464844 34.4375 14.019531 34.578125 14.582031 34.691406 C 15.144531 34.800781 15.710938 34.886719 16.285156 34.941406 C 16.855469 35 17.425781 35.027344 18 35.027344 C 18.574219 35.027344 19.144531 35 19.714844 34.941406 C 20.289062 34.886719 20.855469 34.800781 21.417969 34.691406 C 21.980469 34.578125 22.535156 34.4375 23.082031 34.273438 C 23.632812 34.105469 24.171875 33.914062 24.703125 33.695312 C 25.230469 33.472656 25.75 33.230469 26.253906 32.960938 C 26.761719 32.6875 27.253906 32.394531 27.730469 32.074219 C 28.207031 31.757812 28.667969 31.414062 29.109375 31.050781 C 29.554688 30.6875 29.976562 30.304688 30.382812 29.898438 C 30.789062 29.492188 31.175781 29.066406 31.539062 28.625 C 31.902344 28.179688 32.242188 27.71875 32.5625 27.242188 C 32.878906 26.765625 33.175781 26.273438 33.445312 25.769531 C 33.714844 25.261719 33.960938 24.746094 34.179688 24.214844 C 34.398438 23.6875 34.59375 23.144531 34.757812 22.597656 C 34.925781 22.046875 35.066406 21.492188 35.175781 20.929688 C 35.289062 20.367188 35.371094 19.800781 35.429688 19.230469 C 35.484375 18.660156 35.511719 18.085938 35.511719 17.511719 C 35.511719 16.941406 35.484375 16.367188 35.429688 15.796875 C 35.371094 15.226562 35.289062 14.660156 35.175781 14.097656 C 35.066406 13.535156 34.925781 12.976562 34.757812 12.429688 C 34.59375 11.878906 34.398438 11.339844 34.179688 10.8125 C 33.960938 10.28125 33.714844 9.761719 33.445312 9.257812 C 33.175781 8.75 32.878906 8.261719 32.5625 7.785156 C 32.242188 7.304688 31.902344 6.847656 31.539062 6.402344 C 31.175781 5.960938 30.789062 5.535156 30.382812 5.128906 C 29.976562 4.722656 29.554688 4.339844 29.109375 3.976562 C 28.667969 3.613281 28.207031 3.269531 27.730469 2.953125 C 27.253906 2.632812 26.761719 2.339844 26.253906 2.066406 C 25.75 1.796875 25.230469 1.550781 24.703125 1.332031 C 24.171875 1.113281 23.632812 0.921875 23.082031 0.753906 C 22.535156 0.585938 21.980469 0.449219 21.417969 0.335938 C 20.855469 0.226562 20.289062 0.140625 19.714844 0.0859375 C 19.144531 0.0273438 18.574219 0 18 0 Z M 18 0 "/>
</g>
<g clip-path="url(#clip2)" clip-rule="nonzero">
<path style=" stroke:none;fill-rule:nonzero;fill:rgb(100%,100%,100%);fill-opacity:1;" d="M 14.726562 20.601562 L 12.71875 20.601562 C 12.558594 20.601562 12.429688 20.472656 12.429688 20.3125 C 12.429688 20.15625 12.558594 20.027344 12.71875 20.027344 L 14.726562 20.027344 C 14.886719 20.027344 15.011719 20.15625 15.011719 20.3125 C 15.011719 20.472656 14.886719 20.601562 14.726562 20.601562 Z M 18.617188 18.789062 L 16.84375 19.28125 C 16.789062 19.300781 16.730469 19.308594 16.671875 19.304688 C 16.46875 19.304688 16.28125 19.210938 16.160156 19.050781 C 16.117188 19 16.085938 18.941406 16.066406 18.878906 L 12.71875 18.878906 C 12.558594 18.878906 12.429688 18.75 12.429688 18.589844 C 12.429688 18.433594 12.558594 18.304688 12.71875 18.304688 L 16.101562 18.304688 L 16.421875 17.15625 L 12.71875 17.15625 C 12.558594 17.15625 12.429688 17.027344 12.429688 16.871094 C 12.429688 16.710938 12.558594 16.582031 12.71875 16.582031 L 16.59375 16.582031 C 16.636719 16.488281 16.691406 16.40625 16.765625 16.335938 L 17.667969 15.433594 L 12.71875 15.433594 C 12.558594 15.433594 12.429688 15.304688 12.429688 15.148438 C 12.429688 14.988281 12.558594 14.859375 12.71875 14.859375 L 18.238281 14.859375 L 19.605469 13.492188 L 19.605469 12.5625 C 19.609375 12.410156 19.488281 12.28125 19.335938 12.277344 L 11.265625 12.277344 C 11.109375 12.28125 10.988281 12.410156 10.996094 12.5625 L 10.996094 24.042969 C 10.988281 24.199219 11.109375 24.328125 11.265625 24.332031 L 17.023438 24.332031 L 17.023438 22.609375 C 17.023438 22.136719 17.40625 21.75 17.882812 21.75 L 19.605469 21.75 L 19.605469 17.960938 L 18.996094 18.570312 C 18.890625 18.675781 18.761719 18.75 18.617188 18.789062 "/>
</g>
<g clip-path="url(#clip3)" clip-rule="nonzero">
<path style=" stroke:none;fill-rule:nonzero;fill:rgb(100%,100%,100%);fill-opacity:1;" d="M 17.882812 22.324219 C 17.726562 22.324219 17.597656 22.453125 17.597656 22.609375 L 17.597656 24.332031 L 19.605469 22.324219 L 17.882812 22.324219 "/>
</g>
<g clip-path="url(#clip4)" clip-rule="nonzero">
<path style=" stroke:none;fill-rule:nonzero;fill:rgb(100%,100%,100%);fill-opacity:1;" d="M 24.523438 10.886719 C 24.332031 10.675781 24.058594 10.554688 23.773438 10.554688 C 23.507812 10.554688 23.253906 10.660156 23.066406 10.851562 L 19.605469 14.304688 L 18.742188 15.171875 L 18.480469 15.429688 L 17.167969 16.742188 C 17.132812 16.777344 17.109375 16.820312 17.097656 16.871094 L 16.667969 18.40625 L 16.605469 18.644531 C 16.59375 18.679688 16.613281 18.71875 16.652344 18.730469 C 16.660156 18.730469 16.667969 18.734375 16.671875 18.730469 C 16.679688 18.734375 16.6875 18.730469 16.691406 18.730469 L 16.703125 18.726562 L 18.46875 18.234375 C 18.511719 18.222656 18.554688 18.199219 18.589844 18.164062 L 24.445312 12.308594 C 24.839844 11.929688 24.875 11.308594 24.523438 10.886719 "/>
</g>
</g>
</svg>
