<?xml version="1.0" encoding="UTF-8"?>
<svg xmlns="http://www.w3.org/2000/svg" xmlns:xlink="http://www.w3.org/1999/xlink" width="36pt" height="36.000001pt" viewBox="0 0 36 36.000001" version="1.2">
<defs>
<clipPath id="clip1">
  <path d="M 0.488281 0 L 35.511719 0 L 35.511719 35.027344 L 0.488281 35.027344 Z M 0.488281 0 "/>
</clipPath>
<clipPath id="clip2">
  <path d="M 10.996094 12.644531 L 24.859375 12.644531 L 24.859375 22.132812 L 10.996094 22.132812 Z M 10.996094 12.644531 "/>
</clipPath>
</defs>
<g id="surface1">
<g clip-path="url(#clip1)" clip-rule="nonzero">
<path style=" stroke:none;fill-rule:nonzero;fill:rgb(100%,54.899597%,0%);fill-opacity:1;" d="M 18 0 C 17.425781 0 16.855469 0.0273438 16.285156 0.0859375 C 15.710938 0.140625 15.144531 0.226562 14.582031 0.335938 C 14.019531 0.449219 13.464844 0.585938 12.917969 0.753906 C 12.367188 0.921875 11.828125 1.113281 11.296875 1.332031 C 10.769531 1.550781 10.25 1.796875 9.746094 2.066406 C 9.238281 2.339844 8.746094 2.632812 8.269531 2.953125 C 7.792969 3.269531 7.332031 3.613281 6.890625 3.976562 C 6.445312 4.339844 6.023438 4.722656 5.617188 5.128906 C 5.210938 5.535156 4.824219 5.960938 4.460938 6.402344 C 4.097656 6.847656 3.757812 7.304688 3.4375 7.785156 C 3.121094 8.261719 2.824219 8.75 2.554688 9.257812 C 2.285156 9.761719 2.039062 10.28125 1.820312 10.8125 C 1.601562 11.339844 1.40625 11.878906 1.242188 12.429688 C 1.074219 12.976562 0.933594 13.535156 0.824219 14.097656 C 0.710938 14.660156 0.628906 15.226562 0.570312 15.796875 C 0.515625 16.367188 0.488281 16.941406 0.488281 17.511719 C 0.488281 18.085938 0.515625 18.660156 0.570312 19.230469 C 0.628906 19.800781 0.710938 20.367188 0.824219 20.929688 C 0.933594 21.492188 1.074219 22.046875 1.242188 22.597656 C 1.40625 23.144531 1.601562 23.6875 1.820312 24.214844 C 2.039062 24.746094 2.285156 25.261719 2.554688 25.769531 C 2.824219 26.273438 3.121094 26.765625 3.4375 27.242188 C 3.757812 27.71875 4.097656 28.179688 4.460938 28.625 C 4.824219 29.066406 5.210938 29.492188 5.617188 29.898438 C 6.023438 30.304688 6.445312 30.6875 6.890625 31.050781 C 7.332031 31.414062 7.792969 31.757812 8.269531 32.074219 C 8.746094 32.394531 9.238281 32.6875 9.746094 32.960938 C 10.25 33.230469 10.769531 33.472656 11.296875 33.695312 C 11.828125 33.914062 12.367188 34.105469 12.917969 34.273438 C 13.464844 34.4375 14.019531 34.578125 14.582031 34.691406 C 15.144531 34.800781 15.710938 34.886719 16.285156 34.941406 C 16.855469 35 17.425781 35.027344 18 35.027344 C 18.574219 35.027344 19.144531 35 19.714844 34.941406 C 20.289062 34.886719 20.855469 34.800781 21.417969 34.691406 C 21.980469 34.578125 22.535156 34.4375 23.082031 34.273438 C 23.632812 34.105469 24.171875 33.914062 24.703125 33.695312 C 25.230469 33.472656 25.75 33.230469 26.253906 32.960938 C 26.761719 32.6875 27.253906 32.394531 27.730469 32.074219 C 28.207031 31.757812 28.667969 31.414062 29.109375 31.050781 C 29.554688 30.6875 29.976562 30.304688 30.382812 29.898438 C 30.789062 29.492188 31.175781 29.066406 31.539062 28.625 C 31.902344 28.179688 32.242188 27.71875 32.5625 27.242188 C 32.878906 26.765625 33.175781 26.273438 33.445312 25.769531 C 33.714844 25.261719 33.960938 24.746094 34.179688 24.214844 C 34.398438 23.6875 34.59375 23.144531 34.757812 22.597656 C 34.925781 22.046875 35.066406 21.492188 35.175781 20.929688 C 35.289062 20.367188 35.371094 19.800781 35.429688 19.230469 C 35.484375 18.660156 35.511719 18.085938 35.511719 17.511719 C 35.511719 16.941406 35.484375 16.367188 35.429688 15.796875 C 35.371094 15.226562 35.289062 14.660156 35.175781 14.097656 C 35.066406 13.535156 34.925781 12.976562 34.757812 12.429688 C 34.59375 11.878906 34.398438 11.339844 34.179688 10.8125 C 33.960938 10.28125 33.714844 9.761719 33.445312 9.257812 C 33.175781 8.75 32.878906 8.261719 32.5625 7.785156 C 32.242188 7.304688 31.902344 6.847656 31.539062 6.402344 C 31.175781 5.960938 30.789062 5.535156 30.382812 5.128906 C 29.976562 4.722656 29.554688 4.339844 29.109375 3.976562 C 28.667969 3.613281 28.207031 3.269531 27.730469 2.953125 C 27.253906 2.632812 26.761719 2.339844 26.253906 2.066406 C 25.75 1.796875 25.230469 1.550781 24.703125 1.332031 C 24.171875 1.113281 23.632812 0.921875 23.082031 0.753906 C 22.535156 0.585938 21.980469 0.449219 21.417969 0.335938 C 20.855469 0.226562 20.289062 0.140625 19.714844 0.0859375 C 19.144531 0.0273438 18.574219 0 18 0 Z M 18 0 "/>
</g>
<g clip-path="url(#clip2)" clip-rule="nonzero">
<path style=" stroke:none;fill-rule:nonzero;fill:rgb(100%,100%,100%);fill-opacity:1;" d="M 23.652344 12.644531 L 12.203125 12.644531 C 11.539062 12.644531 10.996094 13.175781 10.996094 13.832031 L 10.996094 20.945312 C 10.996094 21.597656 11.539062 22.132812 12.203125 22.132812 L 23.652344 22.132812 C 24.316406 22.132812 24.855469 21.597656 24.855469 20.945312 L 24.855469 13.832031 C 24.855469 13.175781 24.316406 12.644531 23.652344 12.644531 Z M 12.804688 20.054688 C 12.878906 18.863281 14.4375 19.035156 14.671875 18.417969 C 14.691406 18.203125 14.671875 18.058594 14.671875 17.863281 C 14.574219 17.8125 14.300781 17.539062 14.261719 17.238281 C 14.261719 17.238281 14.039062 17.132812 14.027344 16.808594 C 14.019531 16.632812 14.144531 16.511719 14.144531 16.511719 C 13.914062 15.644531 14.015625 14.742188 15.195312 14.71875 C 15.492188 14.71875 15.714844 14.859375 15.800781 15.015625 C 16.625 15.015625 16.410156 16.144531 16.285156 16.511719 C 16.332031 16.558594 16.390625 16.683594 16.390625 16.851562 C 16.390625 17.09375 16.15625 17.238281 16.15625 17.238281 C 16.113281 17.546875 15.890625 17.800781 15.757812 17.863281 C 15.757812 18.058594 15.738281 18.207031 15.757812 18.417969 C 15.992188 19.035156 17.554688 18.863281 17.625 20.054688 Z M 22.75 19.167969 L 19.132812 19.167969 C 18.964844 19.167969 18.832031 19.035156 18.832031 18.871094 C 18.832031 18.707031 18.964844 18.574219 19.132812 18.574219 L 22.75 18.574219 C 22.914062 18.574219 23.050781 18.707031 23.050781 18.871094 C 23.050781 19.035156 22.914062 19.167969 22.75 19.167969 Z M 22.75 17.683594 L 19.132812 17.683594 C 18.964844 17.683594 18.832031 17.550781 18.832031 17.386719 C 18.832031 17.222656 18.964844 17.089844 19.132812 17.089844 L 22.75 17.089844 C 22.914062 17.089844 23.050781 17.222656 23.050781 17.386719 C 23.050781 17.550781 22.914062 17.683594 22.75 17.683594 Z M 22.75 16.203125 L 19.132812 16.203125 C 18.964844 16.203125 18.832031 16.070312 18.832031 15.90625 C 18.832031 15.742188 18.964844 15.609375 19.132812 15.609375 L 22.75 15.609375 C 22.914062 15.609375 23.050781 15.742188 23.050781 15.90625 C 23.050781 16.070312 22.914062 16.203125 22.75 16.203125 Z M 22.75 16.203125 "/>
</g>
</g>
</svg>
