<?xml version="1.0" encoding="UTF-8"?>
<svg xmlns="http://www.w3.org/2000/svg" xmlns:xlink="http://www.w3.org/1999/xlink" width="36pt" height="36.000001pt" viewBox="0 0 36 36.000001" version="1.2">
<defs>
<clipPath id="clip1">
  <path d="M 0.488281 0 L 35.511719 0 L 35.511719 35.027344 L 0.488281 35.027344 Z M 0.488281 0 "/>
</clipPath>
<clipPath id="clip2">
  <path d="M 15 10.859375 L 20 10.859375 L 20 15 L 15 15 Z M 15 10.859375 "/>
</clipPath>
<clipPath id="clip3">
  <path d="M 13 15 L 23 15 L 23 23.992188 L 13 23.992188 Z M 13 15 "/>
</clipPath>
<clipPath id="clip4">
  <path d="M 20 16 L 24.859375 16 L 24.859375 23 L 20 23 Z M 20 16 "/>
</clipPath>
</defs>
<g id="surface1">
<g clip-path="url(#clip1)" clip-rule="nonzero">
<path style=" stroke:none;fill-rule:nonzero;fill:rgb(100%,54.899597%,0%);fill-opacity:1;" d="M 18 0 C 17.425781 0 16.855469 0.0273438 16.285156 0.0859375 C 15.710938 0.140625 15.144531 0.226562 14.582031 0.335938 C 14.019531 0.449219 13.464844 0.585938 12.917969 0.753906 C 12.367188 0.921875 11.828125 1.113281 11.296875 1.332031 C 10.769531 1.550781 10.25 1.796875 9.746094 2.066406 C 9.238281 2.339844 8.746094 2.632812 8.269531 2.953125 C 7.792969 3.269531 7.332031 3.613281 6.890625 3.976562 C 6.445312 4.339844 6.023438 4.722656 5.617188 5.128906 C 5.210938 5.535156 4.824219 5.960938 4.460938 6.402344 C 4.097656 6.847656 3.757812 7.304688 3.4375 7.785156 C 3.121094 8.261719 2.824219 8.75 2.554688 9.257812 C 2.285156 9.761719 2.039062 10.28125 1.820312 10.8125 C 1.601562 11.339844 1.40625 11.878906 1.242188 12.429688 C 1.074219 12.976562 0.933594 13.535156 0.824219 14.097656 C 0.710938 14.660156 0.628906 15.226562 0.570312 15.796875 C 0.515625 16.367188 0.488281 16.941406 0.488281 17.511719 C 0.488281 18.085938 0.515625 18.660156 0.570312 19.230469 C 0.628906 19.800781 0.710938 20.367188 0.824219 20.929688 C 0.933594 21.492188 1.074219 22.046875 1.242188 22.597656 C 1.40625 23.144531 1.601562 23.6875 1.820312 24.214844 C 2.039062 24.746094 2.285156 25.261719 2.554688 25.769531 C 2.824219 26.273438 3.121094 26.765625 3.4375 27.242188 C 3.757812 27.71875 4.097656 28.179688 4.460938 28.625 C 4.824219 29.066406 5.210938 29.492188 5.617188 29.898438 C 6.023438 30.304688 6.445312 30.6875 6.890625 31.050781 C 7.332031 31.414062 7.792969 31.757812 8.269531 32.074219 C 8.746094 32.394531 9.238281 32.6875 9.746094 32.960938 C 10.25 33.230469 10.769531 33.472656 11.296875 33.695312 C 11.828125 33.914062 12.367188 34.105469 12.917969 34.273438 C 13.464844 34.4375 14.019531 34.578125 14.582031 34.691406 C 15.144531 34.800781 15.710938 34.886719 16.285156 34.941406 C 16.855469 35 17.425781 35.027344 18 35.027344 C 18.574219 35.027344 19.144531 35 19.714844 34.941406 C 20.289062 34.886719 20.855469 34.800781 21.417969 34.691406 C 21.980469 34.578125 22.535156 34.4375 23.082031 34.273438 C 23.632812 34.105469 24.171875 33.914062 24.703125 33.695312 C 25.230469 33.472656 25.75 33.230469 26.253906 32.960938 C 26.761719 32.6875 27.253906 32.394531 27.730469 32.074219 C 28.207031 31.757812 28.667969 31.414062 29.109375 31.050781 C 29.554688 30.6875 29.976562 30.304688 30.382812 29.898438 C 30.789062 29.492188 31.175781 29.066406 31.539062 28.625 C 31.902344 28.179688 32.242188 27.71875 32.5625 27.242188 C 32.878906 26.765625 33.175781 26.273438 33.445312 25.769531 C 33.714844 25.261719 33.960938 24.746094 34.179688 24.214844 C 34.398438 23.6875 34.59375 23.144531 34.757812 22.597656 C 34.925781 22.046875 35.066406 21.492188 35.175781 20.929688 C 35.289062 20.367188 35.371094 19.800781 35.429688 19.230469 C 35.484375 18.660156 35.511719 18.085938 35.511719 17.511719 C 35.511719 16.941406 35.484375 16.367188 35.429688 15.796875 C 35.371094 15.226562 35.289062 14.660156 35.175781 14.097656 C 35.066406 13.535156 34.925781 12.976562 34.757812 12.429688 C 34.59375 11.878906 34.398438 11.339844 34.179688 10.8125 C 33.960938 10.28125 33.714844 9.761719 33.445312 9.257812 C 33.175781 8.75 32.878906 8.261719 32.5625 7.785156 C 32.242188 7.304688 31.902344 6.847656 31.539062 6.402344 C 31.175781 5.960938 30.789062 5.535156 30.382812 5.128906 C 29.976562 4.722656 29.554688 4.339844 29.109375 3.976562 C 28.667969 3.613281 28.207031 3.269531 27.730469 2.953125 C 27.253906 2.632812 26.761719 2.339844 26.253906 2.066406 C 25.75 1.796875 25.230469 1.550781 24.703125 1.332031 C 24.171875 1.113281 23.632812 0.921875 23.082031 0.753906 C 22.535156 0.585938 21.980469 0.449219 21.417969 0.335938 C 20.855469 0.226562 20.289062 0.140625 19.714844 0.0859375 C 19.144531 0.0273438 18.574219 0 18 0 Z M 18 0 "/>
</g>
<g clip-path="url(#clip2)" clip-rule="nonzero">
<path style=" stroke:none;fill-rule:nonzero;fill:rgb(100%,100%,100%);fill-opacity:1;" d="M 17.128906 14.003906 C 17.214844 13.996094 17.289062 13.960938 17.347656 13.902344 L 19.984375 11.269531 L 19.519531 10.839844 L 17.128906 13.222656 L 16.28125 12.378906 L 15.816406 12.839844 L 16.902344 13.902344 C 16.960938 13.972656 17.039062 14.007812 17.128906 14.003906 Z M 17.128906 14.003906 "/>
</g>
<path style=" stroke:none;fill-rule:nonzero;fill:rgb(100%,100%,100%);fill-opacity:1;" d="M 13.761719 21.386719 C 13.789062 21.339844 13.828125 21.300781 13.878906 21.273438 C 13.953125 21.222656 14.039062 21.183594 14.089844 21.140625 C 14.140625 21.121094 14.191406 21.113281 14.246094 21.089844 C 14.332031 21.050781 14.417969 21.023438 14.507812 21 C 14.546875 20.988281 14.585938 20.972656 14.625 20.953125 C 14.769531 20.921875 14.914062 20.90625 15.0625 20.90625 L 15.304688 20.90625 C 15.046875 20.679688 14.914062 20.394531 14.914062 20.050781 L 14.914062 19.945312 C 14.90625 19.808594 14.964844 19.714844 15.09375 19.671875 C 15.367188 19.507812 15.503906 19.269531 15.503906 18.949219 L 15.503906 17.597656 C 15.507812 17.371094 15.433594 17.183594 15.273438 17.023438 C 15.113281 16.867188 14.921875 16.789062 14.695312 16.796875 L 13.785156 16.796875 C 13.5625 16.796875 13.371094 16.875 13.214844 17.03125 C 13.058594 17.1875 12.980469 17.378906 12.980469 17.597656 L 12.980469 18.953125 C 12.996094 19.273438 13.140625 19.515625 13.421875 19.671875 C 13.527344 19.734375 13.578125 19.824219 13.570312 19.945312 L 13.570312 20.050781 C 13.570312 20.207031 13.542969 20.355469 13.484375 20.5 C 13.425781 20.640625 13.339844 20.765625 13.230469 20.875 C 13.121094 20.988281 12.996094 21.070312 12.851562 21.128906 C 12.707031 21.1875 12.558594 21.21875 12.402344 21.214844 L 12.074219 21.214844 C 11.933594 21.214844 11.796875 21.242188 11.664062 21.296875 C 11.535156 21.351562 11.417969 21.425781 11.320312 21.527344 C 11.21875 21.625 11.140625 21.742188 11.085938 21.871094 C 11.035156 22.003906 11.007812 22.140625 11.007812 22.28125 L 11.007812 22.945312 L 12.910156 22.945312 C 12.917969 22.890625 12.925781 22.835938 12.941406 22.785156 C 12.949219 22.710938 12.957031 22.636719 12.96875 22.566406 C 12.988281 22.515625 13.019531 22.4375 13.042969 22.363281 C 13.066406 22.296875 13.085938 22.257812 13.113281 22.195312 C 13.152344 22.125 13.179688 22.054688 13.203125 21.976562 C 13.242188 21.933594 13.273438 21.886719 13.304688 21.832031 C 13.347656 21.769531 13.398438 21.714844 13.464844 21.671875 C 13.484375 21.613281 13.515625 21.5625 13.5625 21.523438 C 13.617188 21.464844 13.683594 21.417969 13.761719 21.386719 Z M 13.761719 21.386719 "/>
<g clip-path="url(#clip3)" clip-rule="nonzero">
<path style=" stroke:none;fill-rule:nonzero;fill:rgb(100%,100%,100%);fill-opacity:1;" d="M 20.738281 21.542969 L 20.324219 21.542969 C 20.230469 21.542969 20.132812 21.535156 20.039062 21.511719 C 20.007812 21.503906 19.976562 21.488281 19.941406 21.480469 C 19.878906 21.464844 19.816406 21.445312 19.753906 21.417969 C 19.738281 21.40625 19.703125 21.40625 19.664062 21.390625 C 19.613281 21.363281 19.558594 21.335938 19.507812 21.304688 C 19.46875 21.269531 19.433594 21.222656 19.382812 21.179688 C 19.359375 21.15625 19.332031 21.136719 19.304688 21.121094 C 19.027344 20.84375 18.890625 20.507812 18.898438 20.117188 L 18.898438 19.96875 C 18.898438 19.84375 18.9375 19.722656 19.046875 19.695312 C 19.453125 19.472656 19.660156 19.128906 19.660156 18.667969 L 19.660156 16.875 C 19.65625 16.722656 19.628906 16.574219 19.566406 16.433594 C 19.507812 16.292969 19.425781 16.167969 19.316406 16.058594 C 19.207031 15.949219 19.082031 15.867188 18.941406 15.808594 C 18.796875 15.746094 18.652344 15.714844 18.496094 15.714844 L 17.304688 15.714844 C 17.152344 15.714844 17.003906 15.746094 16.863281 15.804688 C 16.71875 15.863281 16.59375 15.949219 16.484375 16.058594 C 16.375 16.164062 16.292969 16.289062 16.230469 16.429688 C 16.171875 16.574219 16.140625 16.71875 16.140625 16.875 L 16.140625 18.667969 C 16.140625 19.128906 16.34375 19.472656 16.75 19.695312 C 16.863281 19.722656 16.898438 19.839844 16.898438 19.96875 L 16.898438 20.117188 C 16.90625 20.507812 16.773438 20.839844 16.5 21.121094 C 16.445312 21.164062 16.386719 21.203125 16.332031 21.246094 C 16.328125 21.273438 16.316406 21.289062 16.292969 21.304688 C 16.234375 21.34375 16.167969 21.378906 16.097656 21.40625 C 16.074219 21.40625 16.050781 21.40625 16.042969 21.417969 C 15.976562 21.449219 15.910156 21.46875 15.839844 21.484375 C 15.8125 21.492188 15.785156 21.503906 15.761719 21.511719 C 15.667969 21.535156 15.570312 21.542969 15.476562 21.542969 L 15.0625 21.542969 C 14.863281 21.542969 14.667969 21.582031 14.484375 21.660156 C 14.300781 21.738281 14.136719 21.847656 13.992188 21.988281 C 13.851562 22.128906 13.742188 22.292969 13.664062 22.476562 C 13.585938 22.664062 13.546875 22.855469 13.546875 23.054688 L 13.546875 23.992188 L 22.257812 23.992188 L 22.257812 23.054688 C 22.253906 22.855469 22.214844 22.664062 22.136719 22.476562 C 22.058594 22.292969 21.949219 22.128906 21.808594 21.988281 C 21.667969 21.847656 21.503906 21.738281 21.316406 21.660156 C 21.132812 21.582031 20.941406 21.542969 20.738281 21.542969 Z M 20.738281 21.542969 "/>
</g>
<g clip-path="url(#clip4)" clip-rule="nonzero">
<path style=" stroke:none;fill-rule:nonzero;fill:rgb(100%,100%,100%);fill-opacity:1;" d="M 23.726562 21.214844 L 23.398438 21.214844 C 23.242188 21.214844 23.09375 21.1875 22.949219 21.128906 C 22.804688 21.070312 22.679688 20.984375 22.570312 20.875 C 22.460938 20.765625 22.375 20.640625 22.316406 20.496094 C 22.257812 20.351562 22.226562 20.203125 22.230469 20.050781 L 22.230469 19.945312 C 22.222656 19.820312 22.273438 19.730469 22.378906 19.671875 C 22.660156 19.511719 22.804688 19.273438 22.820312 18.949219 L 22.820312 17.597656 C 22.820312 17.375 22.742188 17.1875 22.582031 17.03125 C 22.425781 16.875 22.234375 16.796875 22.011719 16.796875 L 21.101562 16.796875 C 20.878906 16.789062 20.683594 16.867188 20.527344 17.023438 C 20.367188 17.183594 20.292969 17.375 20.300781 17.597656 L 20.300781 18.953125 C 20.300781 19.269531 20.433594 19.507812 20.707031 19.671875 C 20.835938 19.71875 20.894531 19.808594 20.886719 19.945312 L 20.886719 20.050781 C 20.882812 20.394531 20.753906 20.679688 20.5 20.910156 L 20.742188 20.910156 C 20.886719 20.910156 21.035156 20.925781 21.179688 20.957031 C 21.214844 20.976562 21.253906 20.992188 21.292969 21 C 21.382812 21.023438 21.472656 21.054688 21.558594 21.09375 C 21.613281 21.113281 21.664062 21.121094 21.714844 21.144531 C 21.765625 21.183594 21.847656 21.222656 21.925781 21.273438 C 21.976562 21.304688 22.011719 21.34375 22.042969 21.390625 C 22.121094 21.421875 22.1875 21.464844 22.242188 21.523438 C 22.289062 21.566406 22.320312 21.613281 22.339844 21.671875 C 22.40625 21.714844 22.457031 21.769531 22.5 21.835938 C 22.527344 21.886719 22.5625 21.933594 22.601562 21.980469 C 22.621094 22.054688 22.652344 22.128906 22.6875 22.195312 C 22.714844 22.25 22.738281 22.304688 22.757812 22.363281 C 22.785156 22.441406 22.816406 22.515625 22.832031 22.566406 C 22.851562 22.636719 22.855469 22.710938 22.867188 22.785156 C 22.878906 22.839844 22.886719 22.890625 22.894531 22.945312 L 24.796875 22.945312 L 24.796875 22.28125 C 24.796875 22.136719 24.769531 22.003906 24.71875 21.871094 C 24.664062 21.738281 24.585938 21.625 24.484375 21.523438 C 24.382812 21.425781 24.269531 21.347656 24.136719 21.292969 C 24.003906 21.238281 23.867188 21.214844 23.726562 21.214844 Z M 23.726562 21.214844 "/>
</g>
</g>
</svg>
