<?xml version="1.0" encoding="UTF-8"?>
<svg xmlns="http://www.w3.org/2000/svg" xmlns:xlink="http://www.w3.org/1999/xlink" width="36pt" height="36.000001pt" viewBox="0 0 36 36.000001" version="1.2">
<defs>
<clipPath id="clip1">
  <path d="M 9 1.023438 L 27 1.023438 L 27 25 L 9 25 Z M 9 1.023438 "/>
</clipPath>
<clipPath id="clip2">
  <path d="M 1.507812 11 L 34.347656 11 L 34.347656 33.859375 L 1.507812 33.859375 Z M 1.507812 11 "/>
</clipPath>
</defs>
<g id="surface1">
<g clip-path="url(#clip1)" clip-rule="nonzero">
<path style=" stroke:none;fill-rule:nonzero;fill:rgb(100%,54.899597%,0%);fill-opacity:1;" d="M 17.15625 24.609375 L 18.695312 24.609375 C 19.695312 24.609375 20.492188 23.816406 20.492188 22.816406 L 20.492188 10.089844 L 21.851562 11.449219 C 22.1875 11.785156 22.648438 11.964844 23.136719 11.964844 C 23.621094 11.964844 24.058594 11.785156 24.417969 11.449219 L 25.496094 10.371094 C 25.828125 10.039062 26.007812 9.578125 26.007812 9.117188 C 26.007812 8.628906 25.828125 8.191406 25.496094 7.859375 L 19.183594 1.546875 C 18.851562 1.214844 18.390625 1.035156 17.902344 1.035156 C 17.414062 1.035156 16.976562 1.214844 16.617188 1.546875 L 10.332031 7.832031 C 10 8.167969 9.820312 8.628906 9.820312 9.117188 C 9.820312 9.601562 10 10.039062 10.332031 10.371094 L 11.410156 11.449219 C 11.746094 11.785156 12.207031 11.964844 12.695312 11.964844 C 13.179688 11.964844 13.617188 11.785156 13.949219 11.449219 L 15.386719 10.011719 L 15.386719 22.816406 C 15.363281 23.816406 16.15625 24.609375 17.15625 24.609375 Z M 17.15625 24.609375 "/>
</g>
<g clip-path="url(#clip2)" clip-rule="nonzero">
<path style=" stroke:none;fill-rule:nonzero;fill:rgb(100%,54.899597%,0%);fill-opacity:1;" d="M 31.78125 11.015625 L 29.472656 11.015625 C 28.496094 11.015625 27.675781 11.835938 27.675781 12.835938 L 27.675781 14.347656 C 27.675781 15.246094 28.445312 16.015625 29.214844 16.121094 L 29.214844 28.714844 L 6.640625 28.714844 L 6.640625 16.121094 C 7.152344 16.066406 7.382812 15.886719 7.664062 15.605469 C 8 15.273438 8.179688 14.8125 8.179688 14.347656 L 8.179688 12.835938 C 8.179688 11.859375 7.355469 11.015625 6.382812 11.015625 L 4.074219 11.015625 C 2.664062 11.015625 1.507812 12.167969 1.507812 13.578125 L 1.507812 31.28125 C 1.507812 32.691406 2.664062 33.847656 4.074219 33.847656 L 31.753906 33.847656 C 33.164062 33.847656 34.347656 32.691406 34.347656 31.28125 L 34.347656 13.578125 C 34.347656 12.167969 33.191406 11.015625 31.78125 11.015625 Z M 31.78125 11.015625 "/>
</g>
</g>
</svg>
