<?xml version="1.0" encoding="UTF-8"?>
<svg xmlns="http://www.w3.org/2000/svg" xmlns:xlink="http://www.w3.org/1999/xlink" width="36pt" height="36.000001pt" viewBox="0 0 36 36.000001" version="1.2">
<defs>
<clipPath id="clip1">
  <path d="M 13 11 L 35.511719 11 L 35.511719 29.78125 L 13 29.78125 Z M 13 11 "/>
</clipPath>
<clipPath id="clip2">
  <path d="M 0.488281 5 L 23 5 L 23 24 L 0.488281 24 Z M 0.488281 5 "/>
</clipPath>
</defs>
<g id="surface1">
<g clip-path="url(#clip1)" clip-rule="nonzero">
<path style=" stroke:none;fill-rule:nonzero;fill:rgb(100%,54.899597%,0%);fill-opacity:1;" d="M 35.425781 21.003906 C 35.441406 20.96875 35.449219 20.929688 35.460938 20.890625 C 35.472656 20.855469 35.484375 20.824219 35.492188 20.789062 C 35.503906 20.714844 35.511719 20.640625 35.511719 20.566406 L 35.511719 20.5625 C 35.511719 20.488281 35.503906 20.414062 35.492188 20.339844 C 35.484375 20.304688 35.46875 20.269531 35.460938 20.234375 C 35.449219 20.199219 35.441406 20.160156 35.425781 20.125 C 35.40625 20.082031 35.382812 20.042969 35.359375 20.003906 C 35.347656 19.976562 35.335938 19.949219 35.316406 19.925781 C 35.273438 19.863281 35.226562 19.800781 35.171875 19.746094 L 27.117188 11.78125 C 26.660156 11.332031 25.921875 11.332031 25.46875 11.78125 C 25.011719 12.230469 25.011719 12.960938 25.46875 13.410156 L 31.535156 19.410156 L 14.191406 19.410156 C 13.550781 19.410156 13.027344 19.929688 13.027344 20.566406 C 13.027344 21.199219 13.550781 21.71875 14.191406 21.71875 L 31.535156 21.71875 L 25.46875 27.71875 C 25.011719 28.167969 25.011719 28.898438 25.46875 29.347656 C 25.695312 29.574219 25.992188 29.683594 26.292969 29.683594 C 26.589844 29.683594 26.886719 29.574219 27.113281 29.347656 L 35.171875 21.382812 C 35.226562 21.328125 35.273438 21.265625 35.316406 21.203125 C 35.335938 21.175781 35.347656 21.148438 35.363281 21.117188 C 35.386719 21.082031 35.40625 21.042969 35.425781 21.003906 Z M 35.425781 21.003906 "/>
</g>
<g clip-path="url(#clip2)" clip-rule="nonzero">
<path style=" stroke:none;fill-rule:nonzero;fill:rgb(100%,54.899597%,0%);fill-opacity:1;" d="M 4.464844 15.511719 L 21.808594 15.511719 C 22.453125 15.511719 22.972656 14.996094 22.972656 14.359375 C 22.972656 13.722656 22.449219 13.207031 21.808594 13.207031 L 4.464844 13.207031 L 10.535156 7.203125 C 10.988281 6.753906 10.988281 6.023438 10.535156 5.574219 C 10.078125 5.125 9.339844 5.125 8.886719 5.574219 L 0.828125 13.542969 C 0.773438 13.59375 0.726562 13.65625 0.683594 13.71875 C 0.664062 13.746094 0.652344 13.777344 0.636719 13.804688 C 0.617188 13.839844 0.59375 13.878906 0.574219 13.917969 C 0.558594 13.953125 0.550781 13.992188 0.539062 14.03125 C 0.53125 14.066406 0.515625 14.097656 0.511719 14.132812 C 0.496094 14.207031 0.488281 14.28125 0.488281 14.359375 C 0.488281 14.433594 0.496094 14.507812 0.511719 14.582031 C 0.515625 14.617188 0.53125 14.648438 0.539062 14.683594 C 0.550781 14.722656 0.558594 14.761719 0.574219 14.800781 C 0.59375 14.839844 0.613281 14.875 0.636719 14.914062 C 0.652344 14.941406 0.664062 14.96875 0.683594 14.996094 C 0.726562 15.058594 0.773438 15.121094 0.828125 15.175781 L 8.886719 23.140625 C 9.113281 23.367188 9.410156 23.480469 9.707031 23.480469 C 10.007812 23.480469 10.304688 23.367188 10.53125 23.140625 C 10.988281 22.691406 10.988281 21.960938 10.53125 21.511719 Z M 4.464844 15.511719 "/>
</g>
</g>
</svg>
