<?xml version="1.0" encoding="UTF-8"?>
<svg xmlns="http://www.w3.org/2000/svg" xmlns:xlink="http://www.w3.org/1999/xlink" width="36pt" height="36.000001pt" viewBox="0 0 36 36.000001" version="1.2">
<defs>
<clipPath id="clip1">
  <path d="M 0.488281 0 L 35.511719 0 L 35.511719 35.027344 L 0.488281 35.027344 Z M 0.488281 0 "/>
</clipPath>
<clipPath id="clip2">
  <path d="M 12.359375 13 L 22.984375 13 L 22.984375 24.238281 L 12.359375 24.238281 Z M 12.359375 13 "/>
</clipPath>
<clipPath id="clip3">
  <path d="M 15 10.507812 L 21 10.507812 L 21 14 L 15 14 Z M 15 10.507812 "/>
</clipPath>
</defs>
<g id="surface1">
<g clip-path="url(#clip1)" clip-rule="nonzero">
<path style=" stroke:none;fill-rule:nonzero;fill:rgb(100%,100%,100%);fill-opacity:1;" d="M 0.488281 0 L 35.511719 0 L 35.511719 42.324219 L 0.488281 42.324219 Z M 0.488281 0 "/>
<path style=" stroke:none;fill-rule:nonzero;fill:rgb(100%,100%,100%);fill-opacity:1;" d="M 0.488281 0 L 35.511719 0 L 35.511719 35.027344 L 0.488281 35.027344 Z M 0.488281 0 "/>
<path style=" stroke:none;fill-rule:nonzero;fill:rgb(100%,100%,100%);fill-opacity:1;" d="M 0.488281 0 L 35.511719 0 L 35.511719 35.027344 L 0.488281 35.027344 Z M 0.488281 0 "/>
<path style=" stroke:none;fill-rule:nonzero;fill:rgb(100%,54.899597%,0%);fill-opacity:1;" d="M 18 0 C 17.425781 0 16.855469 0.0273438 16.285156 0.0859375 C 15.710938 0.140625 15.144531 0.226562 14.582031 0.335938 C 14.019531 0.449219 13.464844 0.585938 12.917969 0.753906 C 12.367188 0.921875 11.828125 1.113281 11.296875 1.332031 C 10.769531 1.550781 10.25 1.796875 9.746094 2.066406 C 9.238281 2.339844 8.746094 2.632812 8.269531 2.953125 C 7.792969 3.269531 7.332031 3.613281 6.890625 3.976562 C 6.445312 4.339844 6.023438 4.722656 5.617188 5.128906 C 5.210938 5.535156 4.824219 5.960938 4.460938 6.402344 C 4.097656 6.847656 3.757812 7.304688 3.4375 7.785156 C 3.121094 8.261719 2.824219 8.75 2.554688 9.257812 C 2.285156 9.761719 2.039062 10.28125 1.820312 10.8125 C 1.601562 11.339844 1.40625 11.878906 1.242188 12.429688 C 1.074219 12.976562 0.933594 13.535156 0.824219 14.097656 C 0.710938 14.660156 0.628906 15.226562 0.570312 15.796875 C 0.515625 16.367188 0.488281 16.941406 0.488281 17.511719 C 0.488281 18.085938 0.515625 18.660156 0.570312 19.230469 C 0.628906 19.800781 0.710938 20.367188 0.824219 20.929688 C 0.933594 21.492188 1.074219 22.046875 1.242188 22.597656 C 1.40625 23.144531 1.601562 23.6875 1.820312 24.214844 C 2.039062 24.746094 2.285156 25.261719 2.554688 25.769531 C 2.824219 26.273438 3.121094 26.765625 3.4375 27.242188 C 3.757812 27.71875 4.097656 28.179688 4.460938 28.625 C 4.824219 29.066406 5.210938 29.492188 5.617188 29.898438 C 6.023438 30.304688 6.445312 30.6875 6.890625 31.050781 C 7.332031 31.414062 7.792969 31.757812 8.269531 32.074219 C 8.746094 32.394531 9.238281 32.6875 9.746094 32.960938 C 10.25 33.230469 10.769531 33.472656 11.296875 33.695312 C 11.828125 33.914062 12.367188 34.105469 12.917969 34.273438 C 13.464844 34.4375 14.019531 34.578125 14.582031 34.691406 C 15.144531 34.800781 15.710938 34.886719 16.285156 34.941406 C 16.855469 35 17.425781 35.027344 18 35.027344 C 18.574219 35.027344 19.144531 35 19.714844 34.941406 C 20.289062 34.886719 20.855469 34.800781 21.417969 34.691406 C 21.980469 34.578125 22.535156 34.4375 23.082031 34.273438 C 23.632812 34.105469 24.171875 33.914062 24.703125 33.695312 C 25.230469 33.472656 25.75 33.230469 26.253906 32.960938 C 26.761719 32.6875 27.253906 32.394531 27.730469 32.074219 C 28.207031 31.757812 28.667969 31.414062 29.109375 31.050781 C 29.554688 30.6875 29.976562 30.304688 30.382812 29.898438 C 30.789062 29.492188 31.175781 29.066406 31.539062 28.625 C 31.902344 28.179688 32.242188 27.71875 32.5625 27.242188 C 32.878906 26.765625 33.175781 26.273438 33.445312 25.769531 C 33.714844 25.261719 33.960938 24.746094 34.179688 24.214844 C 34.398438 23.6875 34.59375 23.144531 34.757812 22.597656 C 34.925781 22.046875 35.066406 21.492188 35.175781 20.929688 C 35.289062 20.367188 35.371094 19.800781 35.429688 19.230469 C 35.484375 18.660156 35.511719 18.085938 35.511719 17.511719 C 35.511719 16.941406 35.484375 16.367188 35.429688 15.796875 C 35.371094 15.226562 35.289062 14.660156 35.175781 14.097656 C 35.066406 13.535156 34.925781 12.976562 34.757812 12.429688 C 34.59375 11.878906 34.398438 11.339844 34.179688 10.8125 C 33.960938 10.28125 33.714844 9.761719 33.445312 9.257812 C 33.175781 8.75 32.878906 8.261719 32.5625 7.785156 C 32.242188 7.304688 31.902344 6.847656 31.539062 6.402344 C 31.175781 5.960938 30.789062 5.535156 30.382812 5.128906 C 29.976562 4.722656 29.554688 4.339844 29.109375 3.976562 C 28.667969 3.613281 28.207031 3.269531 27.730469 2.953125 C 27.253906 2.632812 26.761719 2.339844 26.253906 2.066406 C 25.75 1.796875 25.230469 1.550781 24.703125 1.332031 C 24.171875 1.113281 23.632812 0.921875 23.082031 0.753906 C 22.535156 0.585938 21.980469 0.449219 21.417969 0.335938 C 20.855469 0.226562 20.289062 0.140625 19.714844 0.0859375 C 19.144531 0.0273438 18.574219 0 18 0 Z M 18 0 "/>
</g>
<g clip-path="url(#clip2)" clip-rule="nonzero">
<path style=" stroke:none;fill-rule:nonzero;fill:rgb(100%,100%,100%);fill-opacity:1;" d="M 21.28125 18.960938 L 17.230469 20.597656 C 17.222656 20.601562 17.214844 20.601562 17.207031 20.605469 C 17.203125 20.605469 17.199219 20.609375 17.191406 20.609375 C 17.179688 20.613281 17.167969 20.617188 17.152344 20.617188 C 17.136719 20.621094 17.125 20.621094 17.109375 20.621094 C 17.105469 20.621094 17.105469 20.621094 17.101562 20.621094 C 17.089844 20.621094 17.074219 20.621094 17.0625 20.617188 C 17.058594 20.617188 17.054688 20.617188 17.050781 20.617188 C 17.039062 20.613281 17.023438 20.609375 17.011719 20.605469 C 17.007812 20.605469 17.007812 20.605469 17.007812 20.605469 C 16.992188 20.601562 16.980469 20.59375 16.964844 20.589844 C 16.964844 20.589844 16.964844 20.589844 16.960938 20.589844 C 16.960938 20.585938 16.960938 20.585938 16.960938 20.585938 C 16.953125 20.582031 16.941406 20.578125 16.933594 20.570312 C 16.929688 20.570312 16.929688 20.570312 16.925781 20.566406 C 16.917969 20.5625 16.914062 20.558594 16.90625 20.554688 C 16.902344 20.550781 16.898438 20.546875 16.898438 20.546875 C 16.890625 20.542969 16.886719 20.539062 16.882812 20.53125 C 16.878906 20.53125 16.875 20.527344 16.871094 20.523438 C 16.867188 20.519531 16.863281 20.515625 16.859375 20.507812 C 16.855469 20.507812 16.851562 20.503906 16.851562 20.5 C 16.84375 20.496094 16.839844 20.488281 16.835938 20.484375 C 16.835938 20.480469 16.832031 20.476562 16.832031 20.476562 C 16.820312 20.457031 16.808594 20.441406 16.796875 20.421875 C 16.796875 20.417969 16.796875 20.414062 16.792969 20.410156 C 16.792969 20.402344 16.789062 20.398438 16.785156 20.394531 C 16.785156 20.390625 16.785156 20.390625 16.785156 20.390625 C 16.785156 20.382812 16.78125 20.375 16.78125 20.371094 C 16.777344 20.367188 16.777344 20.359375 16.773438 20.355469 C 16.773438 20.351562 16.773438 20.34375 16.773438 20.339844 C 16.769531 20.332031 16.769531 20.328125 16.769531 20.320312 C 16.765625 20.316406 16.765625 20.3125 16.765625 20.304688 C 16.765625 20.300781 16.765625 20.292969 16.765625 20.289062 C 16.765625 20.28125 16.765625 20.277344 16.765625 20.273438 C 16.765625 20.265625 16.761719 20.257812 16.765625 20.253906 C 16.765625 20.246094 16.765625 20.238281 16.765625 20.234375 C 16.765625 20.226562 16.765625 20.222656 16.765625 20.21875 C 16.765625 20.210938 16.769531 20.203125 16.769531 20.199219 C 16.769531 20.195312 16.769531 20.1875 16.773438 20.183594 C 16.773438 20.179688 16.773438 20.171875 16.777344 20.167969 C 16.777344 20.160156 16.78125 20.15625 16.78125 20.148438 C 16.78125 20.144531 16.785156 20.140625 16.785156 20.136719 C 16.789062 20.128906 16.792969 20.125 16.792969 20.117188 C 16.792969 20.117188 16.796875 20.113281 16.796875 20.113281 L 17.574219 18.359375 L 14.523438 19.589844 C 14.496094 19.601562 14.472656 19.609375 14.445312 19.609375 C 14.289062 19.632812 14.132812 19.539062 14.078125 19.378906 C 14.011719 19.191406 14.113281 18.988281 14.289062 18.917969 L 18.121094 17.371094 C 18.121094 17.371094 18.121094 17.371094 18.125 17.371094 C 18.128906 17.367188 18.136719 17.367188 18.140625 17.363281 C 18.148438 17.363281 18.152344 17.363281 18.15625 17.359375 C 18.160156 17.359375 18.164062 17.359375 18.171875 17.355469 C 18.175781 17.355469 18.183594 17.355469 18.191406 17.351562 C 18.191406 17.351562 18.195312 17.351562 18.195312 17.351562 C 18.207031 17.351562 18.214844 17.347656 18.222656 17.347656 C 18.222656 17.347656 18.222656 17.347656 18.226562 17.347656 C 18.234375 17.347656 18.246094 17.347656 18.257812 17.347656 C 18.257812 17.347656 18.257812 17.347656 18.261719 17.347656 C 18.269531 17.347656 18.28125 17.351562 18.289062 17.351562 C 18.292969 17.351562 18.296875 17.351562 18.300781 17.351562 C 18.308594 17.355469 18.316406 17.355469 18.320312 17.355469 C 18.328125 17.359375 18.332031 17.359375 18.335938 17.359375 C 18.339844 17.363281 18.347656 17.363281 18.355469 17.367188 C 18.359375 17.367188 18.363281 17.371094 18.367188 17.371094 C 18.371094 17.375 18.378906 17.375 18.386719 17.378906 C 18.386719 17.378906 18.386719 17.378906 18.390625 17.382812 C 18.390625 17.382812 18.394531 17.382812 18.398438 17.386719 C 18.40625 17.390625 18.410156 17.390625 18.417969 17.394531 C 18.421875 17.398438 18.425781 17.402344 18.429688 17.40625 C 18.433594 17.40625 18.441406 17.410156 18.445312 17.414062 C 18.449219 17.417969 18.453125 17.421875 18.457031 17.425781 C 18.460938 17.429688 18.464844 17.433594 18.472656 17.4375 C 18.476562 17.441406 18.480469 17.445312 18.484375 17.449219 C 18.488281 17.453125 18.492188 17.457031 18.496094 17.460938 C 18.5 17.464844 18.503906 17.46875 18.507812 17.472656 C 18.507812 17.476562 18.511719 17.484375 18.515625 17.488281 C 18.519531 17.492188 18.523438 17.496094 18.527344 17.5 C 18.53125 17.507812 18.53125 17.511719 18.535156 17.515625 C 18.539062 17.519531 18.542969 17.527344 18.542969 17.53125 C 18.546875 17.535156 18.550781 17.542969 18.550781 17.546875 C 18.554688 17.550781 18.558594 17.558594 18.558594 17.566406 C 18.5625 17.570312 18.5625 17.570312 18.566406 17.574219 C 18.566406 17.578125 18.566406 17.578125 18.566406 17.578125 C 18.566406 17.585938 18.570312 17.59375 18.570312 17.597656 C 18.574219 17.601562 18.574219 17.609375 18.578125 17.613281 C 18.578125 17.617188 18.578125 17.625 18.582031 17.628906 C 18.582031 17.636719 18.582031 17.640625 18.582031 17.648438 C 18.585938 17.652344 18.585938 17.65625 18.585938 17.660156 C 18.585938 17.667969 18.585938 17.675781 18.585938 17.683594 C 18.585938 17.6875 18.585938 17.691406 18.585938 17.695312 C 18.585938 17.703125 18.589844 17.710938 18.589844 17.714844 C 18.585938 17.722656 18.585938 17.730469 18.585938 17.734375 C 18.585938 17.742188 18.585938 17.746094 18.585938 17.75 C 18.585938 17.757812 18.582031 17.761719 18.582031 17.769531 C 18.582031 17.773438 18.582031 17.78125 18.578125 17.785156 C 18.578125 17.789062 18.578125 17.796875 18.574219 17.800781 C 18.574219 17.808594 18.570312 17.8125 18.570312 17.820312 C 18.570312 17.824219 18.566406 17.828125 18.566406 17.832031 C 18.5625 17.839844 18.558594 17.847656 18.558594 17.851562 C 18.558594 17.851562 18.558594 17.855469 18.554688 17.855469 L 17.777344 19.609375 L 21.03125 18.296875 C 21.207031 18.226562 21.40625 18.316406 21.476562 18.5 C 21.542969 18.683594 21.457031 18.890625 21.28125 18.960938 Z M 20.496094 13.1875 L 14.847656 13.1875 C 13.476562 13.1875 12.363281 14.347656 12.363281 15.773438 L 12.363281 21.652344 C 12.363281 23.082031 13.476562 24.238281 14.847656 24.238281 L 20.496094 24.238281 C 21.867188 24.238281 22.980469 23.082031 22.980469 21.652344 L 22.980469 15.773438 C 22.980469 14.347656 21.867188 13.1875 20.496094 13.1875 "/>
</g>
<g clip-path="url(#clip3)" clip-rule="nonzero">
<path style=" stroke:none;fill-rule:nonzero;fill:rgb(100%,100%,100%);fill-opacity:1;" d="M 20.113281 10.648438 C 19.980469 10.507812 19.761719 10.507812 19.628906 10.648438 L 17.671875 12.683594 L 15.714844 10.648438 C 15.582031 10.507812 15.363281 10.507812 15.230469 10.648438 C 15.09375 10.785156 15.09375 11.011719 15.230469 11.152344 L 17.429688 13.441406 C 17.496094 13.511719 17.585938 13.546875 17.671875 13.546875 C 17.75 13.546875 17.824219 13.519531 17.886719 13.464844 C 17.898438 13.457031 17.90625 13.449219 17.914062 13.441406 L 20.113281 11.152344 C 20.25 11.011719 20.25 10.785156 20.113281 10.648438 "/>
</g>
</g>
</svg>
