<?xml version="1.0" encoding="UTF-8"?>
<svg xmlns="http://www.w3.org/2000/svg" xmlns:xlink="http://www.w3.org/1999/xlink" width="36pt" height="36.000001pt" viewBox="0 0 36 36.000001" version="1.2">
<defs>
<clipPath id="clip1">
  <path d="M 9 1.511719 L 27 1.511719 L 27 26 L 9 26 Z M 9 1.511719 "/>
</clipPath>
<clipPath id="clip2">
  <path d="M 0.488281 20 L 35.511719 20 L 35.511719 33.617188 L 0.488281 33.617188 Z M 0.488281 20 "/>
</clipPath>
</defs>
<g id="surface1">
<g clip-path="url(#clip1)" clip-rule="nonzero">
<path style=" stroke:none;fill-rule:nonzero;fill:rgb(100%,54.899597%,0%);fill-opacity:1;" d="M 18.820312 1.511719 L 18.820312 1.566406 L 17.207031 1.566406 C 16.171875 1.566406 15.269531 2.277344 15.269531 3.347656 L 15.269531 16.222656 L 13.765625 14.6875 C 13.414062 14.332031 12.949219 14.140625 12.429688 14.140625 C 11.910156 14.140625 11.445312 14.332031 11.089844 14.6875 L 9.917969 15.8125 C 9.5625 16.167969 9.371094 16.660156 9.371094 17.152344 C 9.371094 17.648438 9.5625 18.140625 9.917969 18.496094 L 16.632812 25.316406 C 16.988281 25.671875 17.480469 25.949219 18 25.949219 C 18.519531 25.949219 18.984375 25.671875 19.339844 25.316406 L 26.027344 18.550781 C 26.382812 18.195312 26.574219 17.703125 26.574219 17.179688 C 26.574219 16.660156 26.382812 16.167969 26.027344 15.8125 L 24.882812 14.660156 C 24.527344 14.304688 24.035156 14.085938 23.542969 14.085938 C 23.050781 14.085938 22.53125 14.277344 22.179688 14.632812 L 20.730469 16.113281 L 20.730469 3.347656 C 20.730469 2.277344 19.882812 1.511719 18.820312 1.511719 Z M 18.820312 1.511719 "/>
</g>
<g clip-path="url(#clip2)" clip-rule="nonzero">
<path style=" stroke:none;fill-rule:nonzero;fill:rgb(100%,54.899597%,0%);fill-opacity:1;" d="M 33.539062 20.414062 L 33.566406 20.46875 L 31.925781 20.46875 C 30.863281 20.46875 30.015625 21.316406 30.015625 22.386719 L 30.015625 28.140625 L 5.984375 28.140625 L 5.984375 22.386719 C 5.984375 21.316406 5.136719 20.46875 4.074219 20.46875 L 2.433594 20.46875 C 1.371094 20.46875 0.523438 21.179688 0.523438 22.25 L 0.523438 30.742188 C 0.523438 32.25 1.75 33.617188 3.253906 33.617188 L 32.746094 33.617188 C 34.25 33.617188 35.476562 32.332031 35.476562 30.796875 L 35.449219 22.277344 C 35.449219 21.234375 34.605469 20.414062 33.539062 20.414062 Z M 33.539062 20.414062 "/>
</g>
</g>
</svg>
